<?xml version="1.0" encoding="UTF-8" standalone="no"?>
<svg
   xmlns:dc="http://purl.org/dc/elements/1.1/"
   xmlns:cc="http://creativecommons.org/ns#"
   xmlns:rdf="http://www.w3.org/1999/02/22-rdf-syntax-ns#"
   xmlns:svg="http://www.w3.org/2000/svg"
   xmlns="http://www.w3.org/2000/svg"
   viewBox="0 0 358.66666 330.66666"
   height="330.66666"
   width="358.66666"
   xml:space="preserve"
   id="svg2"
   version="1.1"><metadata
     id="metadata8"><rdf:RDF><cc:Work
         rdf:about=""><dc:format>image/svg+xml</dc:format><dc:type
           rdf:resource="http://purl.org/dc/dcmitype/StillImage" /></cc:Work></rdf:RDF></metadata><defs
     id="defs6" /><g
     transform="matrix(1.3333333,0,0,-1.3333333,0,330.66667)"
     id="g10"><g
       transform="scale(0.1)"
       id="g12"><path
         id="path14"
         style="fill:#bd1e26;fill-opacity:1;fill-rule:evenodd;stroke:none"
         d="m 1738.98,2291.52 c 5.67,-0.35 11.33,-0.66 17,-1.01 -117.66,76.01 -251.14,115.35 -400.47,118.01 18.63,-13.68 36.33,-28.83 52.97,-45.51 4.02,-3.99 8,-8.17 12.03,-12.5 87.65,-8.99 169.14,-32.66 244.49,-70.98 23.98,7.66 48.67,11.64 73.98,11.99" /><path
         id="path16"
         style="fill:#bd1e26;fill-opacity:1;fill-rule:evenodd;stroke:none"
         d="m 1978.48,2004.53 c -1.64,-10 -3.99,-19.69 -7,-29.02 50.67,-96.64 76.53,-203.01 77.5,-318.99 0,-11.99 -0.31,-24.02 -0.97,-36.01 17.97,-31.64 32.3,-64.85 42.97,-99.49 8.36,43.98 12.5,89.18 12.5,135.5 -2,153.32 -42.5,290 -121.49,410 1.33,-20.35 0.16,-41.01 -3.51,-61.99" /><path
         id="path18"
         style="fill:#bd1e26;fill-opacity:1;fill-rule:evenodd;stroke:none"
         d="m 660.512,1538.01 c 0.968,1.33 2.148,2.65 3.468,4.02 -6.32,37.31 -9.492,75.47 -9.492,114.49 0.352,73.99 11.332,144.5 33.012,211.49 -11.988,26.99 -21.172,54.84 -27.5,83.51 -39.34,-91.32 -59.34,-189.68 -60,-295 0.309,-58.67 6.84,-115.5 19.488,-170.5 12.352,17.65 26.024,35 41.024,51.99" /><path
         id="path20"
         style="fill:#bd1e26;fill-opacity:1;fill-rule:evenodd;stroke:none"
         d="m 1353.48,959.531 c -0.67,0 -1.33,0 -2,0 -159.33,2.66 -298.67,49.139 -418,139.489 -35,2.66 -69.339,8.01 -102.968,15.98 140,-135 313.628,-205 520.968,-210 34.03,0 67.35,2.191 100,6.52 -34.33,12.66 -66.99,28.679 -98,48.011" /><path
         id="path22"
         style="fill:#35457f;fill-opacity:1;fill-rule:evenodd;stroke:none"
         d="m 1941.48,1912.5 c 29.34,-66.64 46.68,-137.97 52,-213.98 11.68,-13.68 22.69,-28.17 33,-43.52 0,0.66 0,1.17 0,1.52 -0.66,105 -22.5,202 -65.5,290.98 -5.67,-11.99 -12.15,-23.63 -19.5,-35" /><path
         id="path24"
         style="fill:#35457f;fill-opacity:1;fill-rule:evenodd;stroke:none"
         d="m 711.48,1590.51 c -1.992,21.68 -3,43.67 -3,66.01 0,49.34 5.348,97.15 16.008,143.48 -8.316,12.7 -16.008,25.51 -23.008,38.52 -16.32,-58.01 -24.64,-118.68 -25,-182 0,-31.99 2.192,-63.36 6.532,-94.02 9.328,9.69 18.828,19.02 28.468,28.01" /><path
         id="path26"
         style="fill:#35457f;fill-opacity:1;fill-rule:evenodd;stroke:none"
         d="m 1468.48,2289.02 c 46.68,-8.67 91.52,-21.99 134.53,-40 10.97,7.35 22.5,13.83 34.49,19.5 -61.02,28.32 -126.17,47.34 -195.51,56.99 9.34,-11.64 18.17,-23.83 26.49,-36.49" /><path
         id="path28"
         style="fill:#35457f;fill-opacity:1;fill-rule:evenodd;stroke:none"
         d="m 1278.48,1018.01 c -88.99,10.66 -170.82,37.5 -245.47,80.51 -15.35,-1.02 -30.67,-1.49 -46.022,-1.49 -3.976,0 -8.16,0 -12.5,0 101.332,-68.67 216.682,-106.831 346.022,-114.53 -14.69,11.02 -28.67,22.85 -42.03,35.51" /><path
         id="path30"
         style="fill:#000000;fill-opacity:1;fill-rule:evenodd;stroke:none"
         d="m 1470.51,1836.52 c 25,43.99 41.48,91.18 49.49,141.49 6.99,-21.64 17.15,-42.15 30.51,-61.49 15.66,-22.65 34.65,-41.68 56.99,-56.99 -46.99,-1.37 -92.66,-9.02 -136.99,-23.01 M 1796.48,1825 c 91.68,27.34 148.17,88.01 169.5,182.03 10,64.34 -2.5,121.64 -37.5,171.99 -35,50.32 -84.34,82.15 -147.97,95.51 -13.67,2.31 -27.35,3.48 -41.02,3.48 -108.01,-6.33 -181.01,-59.65 -218.98,-160 -15,90.66 -55.35,169.18 -121.02,235.51 -84.65,83 -186.33,125.15 -305,126.48 -118.67,-1.33 -220.349,-43.48 -305.002,-126.48 -83.008,-84.65 -125.148,-186.33 -126.476,-305 1.328,-118.68 43.468,-220.36 126.476,-305 23.321,-23.68 48.992,-44.18 76.992,-61.49 -21.32,-11.01 -41.992,-23.01 -61.992,-36.01 -4.328,-1.33 -26.168,-17.86 -65.508,-49.5 -25,-21.32 -47.808,-43.67 -68.468,-66.99 -29.032,-33.01 -52.703,-66.83 -71.024,-101.52 -13.008,-10.31 -20.508,-50.82 -22.5,-121.49 1.024,-6.32 2.352,-12.18 3.992,-17.5 11.36,-39.02 37.032,-69.33 77.032,-91.01 9.648,-12.35 64.797,-34.85 165.468,-67.5 3,-0.98 6.168,-1.84 9.532,-2.5 50.308,-11.99 101.636,-18.01 153.976,-18.01 71.332,0 141.332,11.37 210.002,34.02 95.35,-159.329 235.67,-241.989 421.02,-248 135.97,3.32 249.33,50.5 340,141.48 90.66,90.66 137.81,204.02 141.48,340 -1.33,100 -29.18,190 -83.51,270 -53.99,80 -127.15,139.18 -219.5,177.5" /><path
         id="path32"
         style="fill:#b03a33;fill-opacity:1;fill-rule:evenodd;stroke:none"
         d="m 1233.48,1704.02 c 8,-0.35 16.01,-0.66 24.02,-1.01 2.34,-0.31 4.34,-1.17 5.98,-2.5 2.69,-0.31 5.35,-0.67 8,-0.98 0.67,0.67 1.18,1.13 1.53,1.49 0.66,0.66 1.33,1.32 1.99,1.99 -15,3.36 -30.86,6.17 -47.5,8.51 1.64,-1.68 3.67,-4.18 5.98,-7.5" /><path
         id="path34"
         style="fill:#b03a33;fill-opacity:1;fill-rule:evenodd;stroke:none"
         d="m 1181.48,1704.02 c 8.36,0.67 17,0.98 26.02,0.98 -0.35,2.34 0.31,4.69 1.99,7.03 0.67,0.67 1.33,1.33 1.99,1.99 -13.32,1.33 -26.99,2.35 -40.97,3.01 1.99,-1.01 5.66,-5.35 10.97,-13.01" /><path
         id="path36"
         style="fill:#b03a33;fill-opacity:1;fill-rule:evenodd;stroke:none"
         d="m 785,1559.02 c 20.98,14.65 43.32,28.68 66.988,42 1.024,1.32 2.153,2.5 3.524,3.51 1.328,0.98 5.816,3.63 13.468,7.97 -5.308,7.34 -8,10.86 -8,10.51 -4.652,5 -5,10.15 -0.98,15.51 4.648,4.64 9.84,5.15 15.512,1.48 1.328,-0.31 5.66,-5.82 12.968,-16.48 8.668,4.64 18.668,9.64 30,15 -3.32,4.33 -5,6.48 -5,6.48 -4.652,4.69 -5,9.84 -0.98,15.51 4.648,4.69 9.84,5.15 15.512,1.52 0.968,-0.66 4.797,-5.51 11.476,-14.53 7.352,3.36 15.352,6.68 23.992,10 -3.32,4.34 -5.16,6.52 -5.468,6.52 -4.34,5 -4.692,10.16 -1.024,15.51 4.653,4.65 9.852,5.16 15.512,1.49 1.328,-0.36 5.512,-5.67 12.5,-16.02 8.012,3.01 16.33,5.86 25,8.52 -2.66,3.32 -4.02,5 -4.02,5 -4.65,5 -5,10.15 -0.98,15.5 4.65,4.65 9.65,5.16 15,1.49 1.33,-0.31 5.51,-5.51 12.5,-15.51 10.31,3.01 20.98,5.66 31.99,8.01 -1.68,1.99 -2.5,3.01 -2.5,3.01 -5,4.33 -5.82,9.33 -2.5,15 4.65,5.35 10,6.17 16.02,2.5 2.97,-2.35 6.99,-7.5 11.99,-15.51 7.66,1.33 15.51,2.65 23.48,4.02 -3.99,4.34 -4.34,8.99 -0.98,13.99 4.34,5 9.49,5.66 15.51,1.99 2.97,-1.99 6.48,-6.17 10.47,-12.5 6.01,0.66 12.03,1.33 18,1.99 -2.65,4.02 -2.65,8.16 0,12.5 1.02,1.02 2,1.84 3.01,2.5 -101.33,7.03 -213.318,-25.98 -336.01,-98.98 -2.66,-1.02 -20.82,-14.65 -54.5,-41.02 6.329,-5 12.5,-11.13 18.52,-18.48" /><path
         id="path38"
         style="fill:#b03a33;fill-opacity:1;fill-rule:evenodd;stroke:none"
         d="m 1248.98,1673.52 c 2,2.65 4.03,5.15 6.02,7.5 -3.01,0.35 -6.02,0.5 -9.02,0.5 1.01,-2.65 2.03,-5.35 3,-8" /><path
         id="path40"
         style="fill:#b03a33;fill-opacity:1;fill-rule:evenodd;stroke:none"
         d="m 1229.49,1663.52 c -2.65,7.34 -5.35,13.67 -8.01,18.98 -10,0 -19.64,-0.16 -28.98,-0.47 0.98,-2.69 1.99,-5.35 3.01,-8.01 1.64,-6.68 -0.67,-11.52 -7.03,-14.49 -0.98,-0.35 -2.15,-0.51 -3.48,-0.51 -5,0.32 -8.52,2.82 -10.51,7.5 -1.68,5.32 -3.67,10.16 -6.01,14.5 -6.64,-0.67 -13.32,-1.33 -20,-2 1.68,-3.67 3.51,-7.5 5.5,-11.52 2.35,-6.64 0.51,-11.64 -5.5,-15 -1.33,-0.66 -2.82,-0.98 -4.5,-0.98 -4.64,0 -8,2.15 -10,6.49 -3.32,6.68 -6.48,12.65 -9.49,18.01 -8.32,-1.02 -16.68,-2.35 -25,-3.99 1.33,-3.01 2.85,-6.17 4.49,-9.53 2.35,-6.33 0.51,-11.13 -5.5,-14.49 -1.64,-0.98 -3.17,-1.33 -4.5,-0.98 -4.64,0 -8.16,1.99 -10.5,5.98 -2.31,5.35 -4.65,10.15 -7,14.49 -10.97,-2.3 -21.64,-5 -31.99,-7.97 1.99,-3.67 4.18,-7.85 6.49,-12.5 2.03,-6.37 0.19,-11.17 -5.47,-14.53 -1.68,-0.98 -3.36,-1.48 -5,-1.48 -4.34,0.35 -7.7,2.5 -10,6.48 -2.7,5.66 -5.35,11.02 -8.01,16.02 -8.67,-2.66 -17.19,-5.51 -25.512,-8.52 1.992,-3.98 3.992,-8.16 6.022,-12.5 2.3,-6.33 0.66,-11.33 -4.998,-15 -1.684,-0.66 -3.364,-0.98 -5,-0.98 -4.34,0.32 -7.703,2.5 -10,6.49 -2.352,5.35 -4.852,10.15 -7.5,14.49 -8.364,-3.32 -16.371,-6.48 -24.032,-9.49 2.348,-4.65 4.692,-9.49 7,-14.49 2.34,-6.68 0.5,-11.68 -5.468,-15 -1.371,-0.67 -2.852,-1.02 -4.532,-1.02 -4.652,0 -7.968,2.19 -10,6.52 -2.66,5.32 -5.16,10.32 -7.5,15 -12,-5.66 -22.308,-10.66 -30.98,-15 1.988,-4.02 3.98,-8.16 5.98,-12.5 2.34,-6.32 0.5,-11.17 -5.468,-14.49 -1.371,-1.01 -2.852,-1.52 -4.532,-1.52 -4.652,0.35 -7.968,2.5 -10,6.52 -2,3.99 -3.832,7.81 -5.468,11.49 -7.703,-4.65 -11.684,-7.15 -12.032,-7.5 -2,-1.02 -4.14,-1.49 -6.492,-1.49 0,-0.35 0,-0.35 0,0 -23.008,-13.01 -44.648,-26.68 -65,-41.01 30,-50.36 52.66,-109.18 68.012,-176.49 15.309,-67.34 24.34,-112.5 26.988,-135.51 71.332,0.98 149.652,10.16 235.002,27.5 1.02,0 11.49,2.5 31.49,7.5 -8.99,35.67 -13.48,72.82 -13.48,111.49 0.31,84.69 21.48,163.67 63.48,236.99 7.69,14.02 16.83,28.01 27.5,42.03 -2.97,0.98 -5.16,3.17 -6.49,6.49" /><path
         id="path42"
         style="fill:#b03a33;fill-opacity:1;fill-rule:evenodd;stroke:none"
         d="m 885.98,1219.02 c -2,0 -3.992,0 -5.98,0 -33.672,0 -65.512,1.84 -95.512,5.51 -82.34,13.63 -136.328,30 -161.988,48.99 11.328,-18.99 28.672,-34.85 51.988,-47.5 l 1.024,-0.51 c 4.328,-9.34 56.476,-30.51 156.476,-63.48 88.012,-30.35 207.352,-25.66 358.012,13.99 -11.99,25 -21.68,51.17 -29.02,78.51 -20.32,-5.35 -30.98,-8.01 -32,-8.01 -88.32,-18 -169.332,-27.18 -243,-27.5" /><path
         id="path44"
         style="fill:#ffffff;fill-opacity:1;fill-rule:evenodd;stroke:none"
         d="m 725,1485.51 c 23.672,-40.31 40.309,-87.15 50,-140.51 10,-53.63 15.512,-89.8 16.48,-108.48 27.661,-3.36 56.68,-5 87,-5 -2.66,23.99 -11.64,68.83 -27,134.5 -15,65.35 -36.64,121.99 -65,170 -22.339,-16.33 -42.808,-33.17 -61.48,-50.51" /><path
         id="path46"
         style="fill:#b03a33;fill-opacity:1;fill-rule:evenodd;stroke:none"
         d="m 715.98,1476.52 c -51.332,-51.01 -86.839,-106.68 -106.492,-166.99 0.672,-4.02 1.492,-7.85 2.5,-11.52 0.352,-0.67 0.672,-1.49 1.024,-2.5 13.316,-18.32 68.468,-37.35 165.468,-56.99 -1.332,20.66 -6.839,56.01 -16.492,106.01 -9.328,50.31 -24.648,94.34 -46.008,131.99" /><path
         id="path48"
         style="fill:#ffffff;fill-opacity:1;fill-rule:evenodd;stroke:none"
         d="m 713.48,1500.51 c 18.668,17.65 39.18,34.69 61.52,51.01 -6.02,7 -11.988,12.82 -18.012,17.5 -20.347,-17.65 -39.328,-36.17 -56.988,-55.5 4.648,-3.68 9.141,-8.01 13.48,-13.01" /><path
         id="path50"
         style="fill:#b03a33;fill-opacity:1;fill-rule:evenodd;stroke:none"
         d="m 691.48,1504.02 c -25.66,-30 -46.832,-60.5 -63.468,-91.52 -3.012,-2.3 -8.672,-18.48 -17.032,-48.48 22.032,45.67 53.161,88.32 93.508,128.01 -4.328,4.65 -8.668,8.63 -13.008,11.99" /><path
         id="path52"
         style="fill:#000000;fill-opacity:1;fill-rule:evenodd;stroke:none"
         d="m 1267.5,1695 c 1.64,2.03 3.01,3.52 3.98,4.53 -2.65,0.31 -5.31,0.67 -8,0.98 2.03,-1.33 3.36,-3.17 4.02,-5.51" /><path
         id="path54"
         style="fill:#ffffff;fill-opacity:1;fill-rule:evenodd;stroke:none"
         d="m 1263.48,1700.51 c -1.64,1.68 -3.64,2.5 -5.98,2.5 -8.01,0.66 -15.86,1.17 -23.52,1.52 -2.65,3.32 -4.84,5.82 -6.48,7.5 -1.33,1.33 -2.34,2.15 -3.01,2.5 -4.33,2.66 -8.67,2.5 -13.01,-0.51 -0.66,-0.66 -1.32,-1.32 -1.99,-1.99 -1.68,-2.03 -2.34,-4.33 -1.99,-7.03 -9.02,-0.31 -17.66,-0.66 -26.02,-0.98 -5.66,7.66 -9.33,12 -10.97,13.01 -0.35,0.31 -0.67,0.47 -1.02,0.47 -3.98,2.7 -8.16,2.7 -12.5,0 -1.01,-0.66 -1.83,-1.48 -2.5,-2.5 -2.65,-4.34 -2.65,-8.48 0,-12.5 -6.33,-0.66 -12.34,-1.33 -18.01,-1.99 -4.33,6.33 -7.81,10.51 -10.5,12.5 -5.98,3.67 -11.33,3.01 -15.98,-1.99 -3.01,-5 -2.66,-9.65 0.98,-13.99 -7.66,-1.37 -15.32,-2.69 -22.97,-4.02 -5,8.01 -9.03,13.16 -12.03,15.51 -6.33,3.67 -11.64,2.85 -15.98,-2.5 -3.67,-5.67 -3.01,-10.67 1.99,-15 0.35,0 1.17,-1.02 2.5,-3.01 -11.01,-2.35 -21.48,-5 -31.48,-8.01 -7.03,10 -11.17,15.2 -12.5,15.51 -5.67,3.67 -10.86,3.16 -15.51,-1.49 -3.67,-5.35 -3.36,-10.5 0.98,-15.5 0.35,0 1.83,-1.68 4.53,-5 -8.67,-2.66 -17.03,-5.51 -24.998,-8.52 -7.032,10.35 -11.371,15.66 -13.012,16.02 -5.352,3.67 -10.352,3.16 -15,-1.49 -4.02,-5.35 -3.672,-10.51 0.98,-15.51 0,0 1.68,-2.18 5,-6.52 -8.32,-3.32 -16.332,-6.64 -23.992,-10 -6.328,9.02 -10.148,13.87 -11.476,14.53 -5.352,3.63 -10.512,3.17 -15.512,-1.52 -3.672,-5.67 -3.16,-10.82 1.48,-15.51 0,0 1.68,-2.15 5,-6.48 -11.64,-5.36 -21.832,-10.36 -30.5,-15 -7,10.66 -11.332,16.17 -12.968,16.48 -5.352,3.67 -10.352,3.16 -15,-1.48 -4.032,-5.36 -3.672,-10.51 0.968,-15.51 0,0.35 2.5,-3.17 7.5,-10.51 -7.652,-4.34 -11.992,-6.99 -13,-7.97 -1.332,-1.01 -2.5,-2.19 -3.48,-3.51 -1.988,-3.99 -1.84,-7.86 0.512,-11.49 1.988,-3.36 5,-5 8.976,-5 0,-0.35 0,-0.35 0,0 2.352,-0.35 4.34,0.16 6.024,1.49 0.308,0.35 4.328,2.85 11.988,7.5 1.988,-3.68 3.828,-7.5 5.512,-11.49 2.297,-4.02 5.816,-6.17 10.468,-6.52 1.36,0 2.848,0.35 4.532,1.01 5.968,3.68 7.808,8.68 5.468,15 -2.308,4.34 -4.339,8.48 -5.98,12.5 8.672,4.34 18.828,9.34 30.512,15 2.648,-4.68 5.148,-9.68 7.5,-15 2.297,-4.33 5.816,-6.52 10.468,-6.52 1.36,0 2.848,0.35 4.532,1.02 5.968,3.32 7.808,8.32 5.468,15 -2.66,5 -5.16,9.84 -7.5,14.49 8,3.01 16.168,6.17 24.532,9.49 2.297,-4.34 4.797,-9.14 7.5,-14.49 1.988,-4.34 5.308,-6.49 10,-6.49 1.636,0 3.16,0.32 4.488,0.98 5.98,3.67 7.81,8.67 5.51,15 -2.03,4.34 -4.03,8.52 -6.022,12.5 8.012,3.01 16.492,5.86 25.512,8.52 2.66,-5 5.31,-10.36 8.01,-16.02 2.3,-3.98 5.66,-6.13 10,-6.48 1.64,0 3.32,0.35 5,1.01 5.66,3.63 7.3,8.63 5,15 -2.03,4.34 -4.03,8.48 -6.02,12.5 10.35,2.97 21.02,5.67 31.99,7.97 2.35,-4.34 4.69,-9.14 7,-14.49 2.34,-3.99 5.66,-5.98 10,-5.98 1.68,-0.35 3.36,0 5,0.98 5.66,3.36 7.5,8.16 5.5,14.49 -1.64,3.36 -3.32,6.52 -5,9.53 8.36,1.64 16.84,2.97 25.51,3.99 3.01,-5.36 6.02,-11.33 8.99,-18.01 2.34,-4.34 5.86,-6.49 10.5,-6.49 1.33,0 2.86,0.32 4.5,0.98 6.01,3.36 7.85,8.36 5.5,15 -1.99,4.02 -3.98,7.85 -5.97,11.52 6.99,0.67 13.83,1.33 20.47,2 2.03,-4.34 4.02,-9.18 6.01,-14.5 1.68,-4.68 5.16,-7.18 10.51,-7.5 0.98,0 2.15,0.16 3.48,0.51 6.01,2.97 8.36,7.81 7.03,14.49 -1.02,2.66 -2.19,5.32 -3.52,8.01 9.65,0.31 19.34,0.47 28.99,0.47 3,-5.31 5.66,-11.64 8,-18.98 1.33,-3.32 3.68,-5.51 7,-6.49 4.68,5.67 9.02,11.13 13,16.49 -0.66,2.65 -1.64,5.35 -3,8 3,-0.35 6.01,-0.5 9.02,-0.5 5,5.66 9.14,10.35 12.5,13.98 -0.66,2.34 -1.99,4.18 -4.02,5.51" /><path
         id="path56"
         style="fill:#ffffff;fill-opacity:1;fill-rule:evenodd;stroke:none"
         d="m 1850.98,1190.51 c -10,-30 -30.98,-59.65 -62.97,-88.99 -32.35,-29.33 -50.86,-45.35 -55.51,-48 l -2.5,-2 0.51,-3 c 9.33,-37.66 22.5,-66.18 39.49,-85.508 -48.67,-17.66 -99.49,-26.641 -152.5,-26.992 -121.33,1.679 -225.35,44.839 -311.99,129.49 -85,86.68 -128.17,190.66 -129.53,311.99 0,48.01 7.5,94.53 22.5,139.53 l 67.03,-28.51 1.99,3.98 c 1.33,4.02 14.65,22.7 40,56.02 25.31,33.32 56.48,60.15 93.48,80.5 l 4.53,2 -1.53,4.49 c -11.32,32.65 -13,66.17 -5,100.51 l 5,8 h -10.5 c -2.97,0.32 -11.84,-0.5 -26.49,-2.5 75,51.33 158.52,77.15 250.51,77.5 11.64,0 23.48,-0.5 35.51,-1.52 50.97,-19.34 77.5,-31.84 79.49,-37.5 l 1.99,-1.48 2.5,0.5 c 1.68,1.33 14.49,2.66 38.52,3.99 6.33,0 12.5,-0.16 18.47,-0.51 50.67,-22.3 95.86,-53.32 135.51,-92.97 36.99,-37.03 66.49,-79.02 88.52,-126.01 -3.67,-27.35 -6.84,-42.5 -9.53,-45.51 l -0.98,-3.01 1.48,-2.5 c 8.01,-4.34 24.34,-41.33 49.03,-110.98 0.66,-8.36 0.97,-16.32 0.97,-24.02 -0.31,-81.99 -21.17,-157.5 -62.5,-226.48 4.03,15.66 5.86,24.18 5.51,25.5 l 1.02,8.01 -8.01,-2.03 c -12.66,-3.32 -26.84,-5 -42.5,-5 -55.35,5.66 -86.68,11.37 -94.02,17.03 l -6.49,1.99 -1.01,-6.01" /><path
         id="path58"
         style="fill:#000000;fill-opacity:1;fill-rule:evenodd;stroke:none"
         d="m 1896.48,1526.52 -0.5,1.49 c -13.32,29.69 -38.64,60.15 -75.98,91.52 -37.34,31.33 -59.49,49.14 -66.52,53.48 l -1.49,1.01 H 1750 c -26.02,-4.68 -59.49,-18.36 -100.51,-41.01 -40.66,-22.35 -64.33,-35.82 -71.01,-40.51 l -3.48,-1.99 38.01,-196.99 195.47,-35.51 2.03,1.99 c 22.3,22.34 41.64,53.67 57.97,94.02 16.68,40.32 25.86,63.99 27.5,70.98 l 0.5,1.52" /><path
         id="path60"
         style="fill:#000000;fill-opacity:1;fill-rule:evenodd;stroke:none"
         d="m 1485.51,1261.52 v 5 h -5 c -3.67,-0.35 -23.52,2.35 -59.53,8.01 -36.33,5.31 -70.98,16.13 -103.99,32.5 l -3.51,1.99 -2.97,-3 c -2.7,-0.67 -11.02,-12.86 -25,-36.49 -14.34,-23.67 -23.67,-60 -28.01,-109.02 v -0.98 l 0.51,-1.52 c 0.66,-4.65 11.99,-23.01 33.98,-55 22.35,-31.99 57.15,-60.16 104.49,-84.49 l 2,-0.51 h 1.52 c 4.34,0.35 21.84,5.35 52.5,15 30.66,9.33 59.34,24.84 85.98,46.52 l 3.51,2.5 -2.5,3.99 c -1.99,2.65 -10.66,21.99 -26.01,58 -15,35.98 -24.34,75.16 -27.97,117.5" /><path
         id="path62"
         style="fill:#000000;fill-opacity:1;fill-rule:evenodd;stroke:none"
         d="m 1851.48,1190.51 c -10,-30 -31.17,-59.65 -63.47,-88.99 -32.03,-29.33 -50.35,-45.35 -55,-48 l -2.5,-1.49 v -3.51 c 9.65,-37.66 22.97,-66.02 40,-85 -49.03,-18.008 -100,-27 -153.01,-27 -121.02,1.332 -225,44.339 -311.99,128.99 -84.69,86.99 -127.7,191.17 -129.03,312.5 0,47.65 7.35,94.02 22,139.02 l 67.03,-28.51 2.5,3.98 c 1.33,4.34 14.65,23.16 40,56.52 25.31,33.32 56.48,60 93.47,80 l 4.5,2 -1.49,4.49 c -11.68,32.65 -13.32,66.17 -5,100.51 l 4.49,8 -9.49,0.51 h -0.51 c -3.32,0.31 -12.14,-0.66 -26.48,-3.01 74.65,51.33 158.01,77.15 250,77.5 11.99,0 23.98,-0.5 35.98,-1.52 51.01,-18.98 77.34,-31.48 79.02,-37.5 l 2.5,-1.48 2.5,0.5 c 1.33,1.64 14.14,3.17 38.48,4.5 6.36,-0.36 12.5,-0.67 18.51,-1.02 50.67,-22.3 95.82,-53.16 135.51,-92.5 36.99,-37.3 66.48,-79.34 88.48,-125.98 -3.64,-27.65 -6.84,-43 -9.5,-46.01 l -1.48,-2.5 1.99,-2.5 c 8.01,-4.65 24.34,-41.84 48.99,-111.49 0.35,-8.36 0.5,-16.17 0.5,-23.51 -0.31,-82.35 -21.17,-158.01 -62.5,-226.99 4.34,16.01 6.33,24.64 6.02,26.01 l 0.51,7.97 -7.5,-1.99 c -13.01,-3.67 -27.35,-5.51 -43.01,-5.51 -55.35,5.66 -86.68,11.37 -94.02,17.03 l -5.98,2.5 -1.02,-6.52 m -233.98,660 c -66.68,0 -130.35,-13.32 -191.02,-40 -58.32,-25.98 -109.49,-62.5 -153.47,-109.49 -12.7,-11.02 -34.18,-39.65 -64.53,-86.02 -42,-73.32 -63.17,-152.3 -63.48,-236.99 3.32,-133.99 49.49,-245.51 138.48,-334.49 89.02,-88.989 200.35,-135.161 334.02,-138.52 133.98,3.359 245.51,49.531 334.49,138.52 88.99,88.98 135.16,200.5 138.52,334.49 -3.36,133.67 -49.53,245 -138.52,334.02 -88.98,88.99 -200.51,135.16 -334.49,138.48" /><path
         id="path64"
         style="fill:#f05c26;fill-opacity:1;fill-rule:evenodd;stroke:none"
         d="m 1299.49,2220 c 96.33,-15.66 155.82,-39.14 178.52,-70.47 -30,105.98 -91.37,186.64 -184.03,241.99 -68.98,-1.99 -146.17,-36.01 -231.48,-101.99 20,-22.34 98.98,-45.51 236.99,-69.53" /><path
         id="path66"
         style="fill:#f05c26;fill-opacity:1;fill-rule:evenodd;stroke:none"
         d="m 1050.51,2298.01 c 78.63,61.33 151.99,96.68 220,106.01 -6.02,3.01 -12.03,5.82 -18.01,8.48 -1.99,1.02 -3.83,1.84 -5.51,2.5 -4.65,2.03 -9.33,3.87 -13.98,5.51 -2.03,0.66 -3.87,1.33 -5.51,1.99 -6.33,2.34 -12.66,4.53 -19.02,6.52 -0.67,0 -1.33,0.16 -2,0.51 -5.66,1.64 -11.48,3.17 -17.5,4.49 -2.34,0.67 -4.49,1.18 -6.48,1.49 -5,1.01 -9.84,1.99 -14.49,3.01 -2.03,0.35 -4.18,0.66 -6.53,1.01 -6.64,1.33 -13.32,2.31 -20,2.97 -0.31,0.35 -0.66,0.51 -0.97,0.51 -7.03,0.66 -14.18,1.17 -21.53,1.52 -0.66,0.31 -1.17,0.47 -1.48,0.47 -7.66,0.35 -15.35,0.51 -23.01,0.51 -6.68,0 -13.16,-0.16 -19.49,-0.51 -4.69,-0.31 -9.18,-0.66 -13.52,-0.98 -5,-0.35 -10,-0.86 -15,-1.52 -2.34,-0.31 -4.49,-0.66 -6.48,-0.98 -7.34,-0.66 -14.49,-1.83 -21.52,-3.51 -10.98,-9.65 -17.82,-28.01 -20.468,-55 0.968,-28.67 18.468,-56.99 52.498,-85" /><path
         id="path68"
         style="fill:#f05c26;fill-opacity:1;fill-rule:evenodd;stroke:none"
         d="m 983.48,2383.01 c 0.661,21.01 5.348,37.85 14.02,50.51 -68.012,-17.66 -126.84,-50.16 -176.52,-97.5 25.348,-13.01 76.829,-48.17 154.532,-105.51 20.66,21.33 41.828,40.86 63.468,58.51 -35.97,30 -54.492,61.33 -55.5,93.99" /><path
         id="path70"
         style="fill:#f05c26;fill-opacity:1;fill-rule:evenodd;stroke:none"
         d="m 705.512,2130.51 c 16.636,20.66 41.988,36.52 75.968,47.5 39.032,9.33 80.161,0.35 123.52,-26.99 10.98,14.33 22.66,28.51 35,42.5 8.32,9.33 16.641,18.32 25,26.99 -80.66,59.33 -132.34,94.49 -155,105.51 -52.66,-53.99 -87.5,-119.18 -104.488,-195.51" /><path
         id="path72"
         style="fill:#f05c26;fill-opacity:1;fill-rule:evenodd;stroke:none"
         d="m 785,2163.52 c -45,-18.32 -73.16,-39.34 -84.488,-63.01 -1.024,-8.32 -1.84,-16.84 -2.5,-25.51 0,-0.31 0,-0.66 0,-0.98 -0.672,-8.36 -1.024,-16.83 -1.024,-25.5 0,-5.36 0.16,-10.36 0.512,-15 0,-1.02 0,-2 0,-3.01 0,-4.65 0.309,-9.49 0.98,-14.49 0,-0.36 0,-0.67 0,-1.02 0.661,-10.66 2.032,-21.13 4.02,-31.48 0,-0.36 0,-0.51 0,-0.51 0.98,-6.99 2.34,-13.99 3.98,-20.98 0.36,-1.68 0.668,-3.36 1.02,-5 3.32,-13.67 7.34,-27.19 11.988,-40.51 0.672,-1.68 1.172,-3.16 1.492,-4.49 5,-13.36 10.5,-26.17 16.52,-38.51 0.98,-1.68 1.84,-3.17 2.5,-4.5 6.328,-12.34 13.16,-24.33 20.512,-36.01 0.968,-1.33 1.988,-2.66 2.968,-3.99 3.668,-6.01 7.5,-11.68 11.52,-16.99 -9.34,93.32 30.98,202.31 120.98,326.99 -39.339,24.65 -76.332,32.82 -110.98,24.5" /><path
         id="path74"
         style="fill:#f05c26;fill-opacity:1;fill-rule:evenodd;stroke:none"
         d="m 1040.98,1731.52 c -17,33.99 -28.48,82.5 -34.5,145.51 -9.332,86.64 -25.152,149.14 -47.5,187.5 -22.339,38.32 -39.332,60.47 -50.968,66.49 -100,-139.34 -137.192,-254.34 -111.532,-345 4.34,-4.65 8.68,-9.34 13.008,-13.99 1.332,-1.37 2.66,-2.69 3.992,-4.02 3.36,-3.32 6.52,-6.49 9.532,-9.49 1.636,-1.33 3.316,-2.86 5,-4.5 3.316,-2.65 6.476,-5.5 9.488,-8.51 1.641,-1.33 3.32,-2.66 5,-3.99 3.98,-3.36 8.16,-6.52 12.5,-9.49 0.66,-0.66 1.48,-1.37 2.5,-2.03 5,-3.98 10.16,-7.66 15.512,-10.98 1.636,-1.01 3.16,-1.99 4.488,-3 3.98,-2.66 7.809,-5.16 11.48,-7.5 2,-1.02 4.032,-2.15 6.02,-3.52 3.672,-1.99 7.34,-3.98 10.98,-5.98 2.032,-1.01 4.02,-2.18 6.008,-3.51 1.024,-0.31 1.992,-0.67 3.012,-0.98 43.32,17.66 85.31,30 125.98,36.99" /><path
         id="path76"
         style="fill:#f05c26;fill-opacity:1;fill-rule:evenodd;stroke:none"
         d="m 1420,1822.03 c 0.66,0.98 1.33,1.99 1.99,2.97 5,7.03 9.49,14.02 13.52,21.02 0.97,1.32 1.83,2.65 2.5,3.98 3.98,7.03 7.97,14.34 11.99,22.03 0.31,0.98 0.66,1.99 0.98,2.97 8,16.02 14.84,32.5 20.5,49.53 0.36,0.98 0.67,1.99 1.02,2.97 2.66,8.36 5,16.68 6.99,25 0.35,1.37 0.67,2.7 1.02,4.02 1.99,8.32 3.63,17 5,25.98 0.31,0.66 0.47,1.37 0.47,2.03 1.68,9.34 2.85,18.63 3.51,27.97 0,0 0,0.2 0,0.51 0.35,0.35 0.51,0.86 0.51,1.52 0,2.97 0.16,5.98 0.51,8.99 0,2.34 0.15,4.49 0.47,6.48 0,1.02 0,1.84 0,2.5 0,5.35 0,10.66 0,16.02 0.35,5.35 0.35,10.66 0,16.01 0,0.67 0,1.33 0,1.99 -0.32,3.01 -0.67,5.98 -0.98,8.99 0,2.34 0,4.69 0,6.99 -0.35,0.35 -0.51,0.51 -0.51,0.51 0,2.34 -0.15,4.69 -0.51,6.99 -0.31,3.36 -0.66,6.68 -0.97,10 -0.67,5.35 -1.53,10.86 -2.5,16.52 -4.69,33.99 -67.35,63.68 -188.01,88.99 -150,26.99 -232.34,51.83 -246.99,74.49 -21.68,-17.66 -43.01,-36.99 -64.03,-57.97 119.69,-86.37 259.03,-226.68 418.01,-421.01 5.35,6.99 10.51,13.98 15.51,21.01" /><path
         id="path78"
         style="fill:#f05c26;fill-opacity:1;fill-rule:evenodd;stroke:none"
         d="m 1290.98,1723.52 c 1.36,-0.36 2.5,-0.67 3.51,-1.02 29.65,28.01 62.35,51.52 98.01,70.51 -158.67,193.67 -297.34,333.16 -416.02,418.51 -8.671,-9.02 -17.14,-18.16 -25.5,-27.5 -12,-13.67 -23.32,-27.5 -33.992,-41.52 13.012,-6.99 31.172,-30.47 54.492,-70.47 23.36,-39.69 39.85,-104.18 49.5,-193.51 6.01,-63.68 17.69,-111.84 35,-144.5 92.03,10.98 170.35,7.5 235,-10.5" /><path
         id="path80"
         style="fill:#ffffff;fill-opacity:1;fill-rule:evenodd;stroke:none"
         d="m 1773.98,2242.5 c 55,-11.33 97.5,-38.63 127.5,-81.99 30,-43.01 40.67,-92.15 32,-147.5 -11.33,-55 -38.48,-97.5 -81.49,-127.5 -43.32,-30 -92.65,-40.67 -148.01,-31.99 -54.64,11.32 -96.99,38.51 -126.99,81.48 -30,43.36 -40.82,92.7 -32.5,148.01 11.33,54.69 38.67,96.99 81.99,126.99 43.01,30 92.19,40.86 147.5,32.5" /><path
         id="path82"
         style="fill:#bf262b;fill-opacity:1;fill-rule:evenodd;stroke:none"
         d="m 1551.99,2033.01 c 0.35,2.34 -3.01,5.15 -10,8.51 0,-2.65 0.16,-5.35 0.51,-8 5.31,-1.68 8.48,-1.84 9.49,-0.51" /><path
         id="path84"
         style="fill:#bf262b;fill-opacity:1;fill-rule:evenodd;stroke:none"
         d="m 1561.48,2049.02 c 0.67,2.35 -2.34,5.82 -8.98,10.51 -4.02,2.66 -7.34,4.14 -10,4.49 -0.35,-1.99 -0.51,-4.02 -0.51,-6.01 1.68,-1.64 3.83,-3.32 6.49,-5 7.03,-4.34 11.36,-5.67 13,-3.99" /><path
         id="path86"
         style="fill:#bf262b;fill-opacity:1;fill-rule:evenodd;stroke:none"
         d="m 1545.51,2076.02 c 0.66,0.66 0.31,2.14 -1.02,4.49 0,-1.64 -0.15,-3.32 -0.51,-5 0.67,0 1.18,0.15 1.53,0.51" /><path
         id="path88"
         style="fill:#bf262b;fill-opacity:1;fill-rule:evenodd;stroke:none"
         d="m 1554.49,2081.52 c -1.33,-1.99 0.82,-6.01 6.49,-11.99 6.01,-5.66 10.19,-8.01 12.5,-7.03 1.01,2.34 -1.33,6.52 -7,12.5 -5.97,5.35 -10,7.5 -11.99,6.52" /><path
         id="path90"
         style="fill:#bf262b;fill-opacity:1;fill-rule:evenodd;stroke:none"
         d="m 1561.99,2092.5 c 1.33,2.03 -0.82,6.02 -6.48,12.03 -1.37,1.33 -2.7,2.5 -4.03,3.48 -0.97,-2.66 -1.83,-5.31 -2.5,-8.01 0.36,-0.31 0.67,-0.66 1.02,-0.98 5.98,-5.66 10,-7.85 11.99,-6.52" /><path
         id="path92"
         style="fill:#bf262b;fill-opacity:1;fill-rule:evenodd;stroke:none"
         d="m 1571.48,2098.01 c -1.32,-1.99 0.86,-5.98 6.53,-11.99 5.97,-5.67 10.15,-8.01 12.5,-7 0.97,2.35 -1.37,6.49 -7.03,12.5 -5.98,5.32 -10,7.5 -12,6.49" /><path
         id="path94"
         style="fill:#bf262b;fill-opacity:1;fill-rule:evenodd;stroke:none"
         d="m 1580,2108.01 c 1.64,1.99 0.31,6.52 -4.02,13.51 -4.34,6.64 -7.82,9.85 -10.47,9.5 -1.37,-2 0,-6.49 3.98,-13.52 4.65,-6.99 8.17,-10.16 10.51,-9.49" /><path
         id="path96"
         style="fill:#bf262b;fill-opacity:1;fill-rule:evenodd;stroke:none"
         d="m 1590,2112.03 c -1.33,-2.03 0,-6.52 3.98,-13.51 4.69,-7 8.17,-10.16 10.51,-9.5 1.68,2 0.35,6.49 -3.98,13.48 -4.34,6.68 -7.85,9.84 -10.51,9.53" /><path
         id="path98"
         style="fill:#bf262b;fill-opacity:1;fill-rule:evenodd;stroke:none"
         d="m 1600,2121.02 c 1.64,1.99 0.31,6.48 -4.02,13.51 -4.34,6.64 -7.82,9.81 -10.47,9.49 -1.37,-1.99 0,-6.52 3.98,-13.51 4.65,-6.99 8.17,-10.16 10.51,-9.49" /><path
         id="path100"
         style="fill:#bf262b;fill-opacity:1;fill-rule:evenodd;stroke:none"
         d="m 1610,2124.53 c -1.33,-2.03 0,-6.52 3.98,-13.51 4.69,-7 8.17,-10.16 10.51,-9.5 1.68,2 0.35,6.49 -3.98,13.48 -4.34,6.68 -7.85,9.84 -10.51,9.53" /><path
         id="path102"
         style="fill:#bf262b;fill-opacity:1;fill-rule:evenodd;stroke:none"
         d="m 1620,2133.52 c 1.64,1.99 0.31,6.48 -4.02,13.51 -4.34,6.64 -7.82,9.81 -10.47,9.49 -1.37,-1.99 0,-6.52 3.98,-13.51 4.65,-6.99 8.17,-10.16 10.51,-9.49" /><path
         id="path104"
         style="fill:#bf262b;fill-opacity:1;fill-rule:evenodd;stroke:none"
         d="m 1630,2137.03 c -1.33,-2.03 0,-6.52 3.98,-13.51 4.69,-7 8.17,-10.16 10.51,-9.5 1.68,2 0.35,6.49 -3.98,13.48 -4.34,6.68 -7.85,9.84 -10.51,9.53" /><path
         id="path106"
         style="fill:#bf262b;fill-opacity:1;fill-rule:evenodd;stroke:none"
         d="m 1641.48,2143.52 c 2,1.68 1.68,6.32 -0.97,13.98 -3.01,7.7 -5.86,11.52 -8.52,11.52 -1.68,-1.68 -1.17,-6.32 1.49,-14.02 3,-7.66 5.66,-11.48 8,-11.48" /><path
         id="path108"
         style="fill:#bf262b;fill-opacity:1;fill-rule:evenodd;stroke:none"
         d="m 1651.99,2145 c -1.68,-1.64 -1.17,-6.33 1.49,-13.98 3,-7.66 5.66,-11.49 8,-11.49 2,1.64 1.68,6.33 -0.97,13.99 -3.01,7.65 -5.86,11.48 -8.52,11.48" /><path
         id="path110"
         style="fill:#bf262b;fill-opacity:1;fill-rule:evenodd;stroke:none"
         d="m 1653.98,2177.03 c -1.64,-1.68 -1.17,-6.37 1.53,-14.02 2.97,-7.66 5.66,-11.49 7.97,-11.49 2.03,1.64 1.68,6.33 -0.98,13.99 -3.01,7.65 -5.86,11.52 -8.52,11.52" /><path
         id="path112"
         style="fill:#bf262b;fill-opacity:1;fill-rule:evenodd;stroke:none"
         d="m 1674.49,2153.01 c -1.68,-1.64 -1.17,-6.33 1.49,-13.99 3,-7.65 5.66,-11.52 8,-11.52 2,1.68 1.68,6.37 -0.97,14.02 -3.01,7.66 -5.86,11.49 -8.52,11.49" /><path
         id="path114"
         style="fill:#bf262b;fill-opacity:1;fill-rule:evenodd;stroke:none"
         d="m 1676.48,2185.51 c -1.64,-1.64 -1.17,-6.33 1.53,-13.99 2.97,-7.65 5.66,-11.52 7.97,-11.52 2.03,1.68 1.68,6.37 -0.98,14.02 -3.01,7.66 -5.86,11.49 -8.52,11.49" /><path
         id="path116"
         style="fill:#bf262b;fill-opacity:1;fill-rule:evenodd;stroke:none"
         d="m 1696.48,2161.52 c -1.64,-1.68 -1.17,-6.32 1.53,-14.02 2.97,-7.66 5.66,-11.48 7.97,-11.48 2.03,1.68 1.68,6.32 -0.98,13.98 -3.01,7.7 -5.86,11.52 -8.52,11.52" /><path
         id="path118"
         style="fill:#bf262b;fill-opacity:1;fill-rule:evenodd;stroke:none"
         d="m 1698.48,2193.52 c -1.64,-1.68 -1.14,-6.33 1.52,-13.99 3.01,-7.69 5.66,-11.52 8.01,-11.52 1.99,1.68 1.64,6.33 -1.02,14.02 -3.01,7.66 -5.82,11.49 -8.51,11.49" /><path
         id="path120"
         style="fill:#bf262b;fill-opacity:1;fill-rule:evenodd;stroke:none"
         d="m 1718.48,2170 c -1.64,-1.64 -1.14,-6.33 1.52,-13.98 3.01,-7.66 5.66,-11.49 8.01,-11.49 1.99,1.64 1.64,6.33 -1.02,13.99 -3.01,7.65 -5.82,11.48 -8.51,11.48" /><path
         id="path122"
         style="fill:#bf262b;fill-opacity:1;fill-rule:evenodd;stroke:none"
         d="m 1720.98,2202.03 c -1.64,-1.68 -1.14,-6.37 1.52,-14.02 3.01,-7.66 5.66,-11.49 8.01,-11.49 1.99,1.64 1.64,6.33 -1.02,13.99 -3.01,7.65 -5.82,11.52 -8.51,11.52" /><path
         id="path124"
         style="fill:#bf262b;fill-opacity:1;fill-rule:evenodd;stroke:none"
         d="m 1750.51,2152.5 c 1.99,1.68 1.64,6.37 -1.02,14.02 -3.01,7.66 -5.82,11.49 -8.51,11.49 -1.64,-1.64 -1.14,-6.33 1.52,-13.99 3.01,-7.65 5.66,-11.52 8.01,-11.52" /><path
         id="path126"
         style="fill:#bf262b;fill-opacity:1;fill-rule:evenodd;stroke:none"
         d="m 1752.5,2185 c 1.99,1.68 1.64,6.37 -1.02,14.02 -3,7.66 -5.82,11.49 -8.47,11.49 -1.68,-1.64 -1.17,-6.33 1.48,-13.99 3.01,-7.65 5.67,-11.52 8.01,-11.52" /><path
         id="path128"
         style="fill:#bf262b;fill-opacity:1;fill-rule:evenodd;stroke:none"
         d="m 1763.01,2186.52 c -1.68,-1.68 -1.17,-6.32 1.48,-14.02 3.01,-7.66 5.67,-11.48 8.01,-11.48 1.99,1.68 1.64,6.32 -1.02,13.98 -3,7.7 -5.82,11.52 -8.47,11.52" /><path
         id="path130"
         style="fill:#bf262b;fill-opacity:1;fill-rule:evenodd;stroke:none"
         d="m 1774.49,2193.52 c 1.68,1.68 0.35,6.01 -3.98,13 -5,7 -8.67,10.16 -11.02,9.5 -1.33,-2 0.16,-6.49 4.49,-13.52 4.69,-6.64 8.17,-9.65 10.51,-8.98" /><path
         id="path132"
         style="fill:#bf262b;fill-opacity:1;fill-rule:evenodd;stroke:none"
         d="m 1784.49,2197.5 c -1.33,-1.99 0.16,-6.48 4.49,-13.48 4.69,-6.68 8.17,-9.68 10.51,-9.02 1.68,1.68 0.35,6.02 -3.98,13.01 -5,6.99 -8.67,10.15 -11.02,9.49" /><path
         id="path134"
         style="fill:#bf262b;fill-opacity:1;fill-rule:evenodd;stroke:none"
         d="m 1793.98,2206.52 c 1.68,1.64 0.36,5.98 -3.98,13.01 -5,6.99 -8.67,10.16 -11.02,9.49 -1.32,-1.99 0.16,-6.52 4.5,-13.51 4.68,-6.64 8.16,-9.65 10.5,-8.99" /><path
         id="path136"
         style="fill:#bf262b;fill-opacity:1;fill-rule:evenodd;stroke:none"
         d="m 1818.98,2188.01 c 1.68,1.68 0.36,6.01 -3.98,13.01 -5,6.99 -8.67,10.15 -11.02,9.49 -1.32,-1.99 0.16,-6.49 4.5,-13.48 4.68,-6.68 8.16,-9.69 10.5,-9.02" /><path
         id="path138"
         style="fill:#bf262b;fill-opacity:1;fill-rule:evenodd;stroke:none"
         d="m 1800.51,2226.02 c 6.33,-5 10.47,-7 12.5,-6.02 0.97,2.34 -1.53,6.37 -7.5,12.03 -1.68,1.33 -3.36,2.5 -5,3.48 -2.35,1.01 -4.69,1.83 -7.03,2.5 -0.32,0 -0.47,0 -0.47,0 -1.02,-2.35 1.48,-6.33 7.5,-11.99" /><path
         id="path140"
         style="fill:#bf262b;fill-opacity:1;fill-rule:evenodd;stroke:none"
         d="m 1829.49,2214.53 c 6.33,-5.35 10.51,-7.34 12.5,-6.01 1.02,2.34 -1.48,6.32 -7.5,11.99 -0.66,0.35 -1.33,0.86 -1.99,1.52 -3.01,1.33 -6.17,2.81 -9.49,4.49 -0.67,0 -1.02,-0.15 -1.02,-0.5 -1.01,-2 1.49,-5.82 7.5,-11.49" /><path
         id="path142"
         style="fill:#bf262b;fill-opacity:1;fill-rule:evenodd;stroke:none"
         d="m 1708.48,1862.5 c -1.64,-0.98 -2,-4.14 -0.98,-9.49 3.01,-0.31 5.82,-0.67 8.48,-0.98 -2.97,6.99 -5.47,10.47 -7.5,10.47" /><path
         id="path144"
         style="fill:#bf262b;fill-opacity:1;fill-rule:evenodd;stroke:none"
         d="m 1725.51,1871.02 c -1.68,-2 -0.67,-6.68 2.97,-13.99 1.36,-2.69 2.69,-4.84 4.02,-6.52 1.99,0 3.98,0 5.98,0 0,2.65 -1.14,6.01 -3.48,10 -4.02,7.34 -7.19,10.86 -9.49,10.51" /><path
         id="path146"
         style="fill:#bf262b;fill-opacity:1;fill-rule:evenodd;stroke:none"
         d="m 1750.51,1852.03 c -0.35,0 -0.51,-0.51 -0.51,-1.52 1.64,0.35 3.32,0.51 5,0.51 -2.34,1.32 -3.83,1.68 -4.49,1.01" /><path
         id="path148"
         style="fill:#bf262b;fill-opacity:1;fill-rule:evenodd;stroke:none"
         d="m 1739.49,1881.52 c -1.33,-1.99 0.51,-6.17 5.51,-12.5 5.66,-6.32 9.65,-9.02 11.99,-8 1.02,1.99 -1.01,6.32 -6.01,13 -5.32,5.98 -9.14,8.48 -11.49,7.5" /><path
         id="path150"
         style="fill:#bf262b;fill-opacity:1;fill-rule:evenodd;stroke:none"
         d="m 1768.48,1867.03 c -1.33,-2.03 0.5,-6.17 5.5,-12.5 0.36,-0.35 0.67,-0.66 1.02,-1.01 2.66,0.35 5.51,0.82 8.48,1.48 -0.98,1.37 -2.15,2.85 -3.48,4.53 -5.35,5.98 -9.18,8.48 -11.52,7.5" /><path
         id="path152"
         style="fill:#bf262b;fill-opacity:1;fill-rule:evenodd;stroke:none"
         d="m 1757.5,1896.52 c -1.33,-1.99 0.51,-6.17 5.51,-12.5 5.66,-6.32 9.65,-9.02 11.99,-8 0.98,1.99 -1.02,6.32 -6.02,13 -5.31,5.98 -9.14,8.48 -11.48,7.5" /><path
         id="path154"
         style="fill:#bf262b;fill-opacity:1;fill-rule:evenodd;stroke:none"
         d="m 1798.98,1879.02 c -6.99,4.65 -11.32,6.33 -13,5 -0.98,-2.34 1.68,-6.17 8,-11.52 6.68,-4.65 11.02,-6.33 13.01,-5 1.02,2.34 -1.68,6.17 -8.01,11.52" /><path
         id="path156"
         style="fill:#bf262b;fill-opacity:1;fill-rule:evenodd;stroke:none"
         d="m 1789.49,1894.02 c 1.02,2.35 -1.68,6.18 -8.01,11.49 -6.64,4.69 -10.97,6.33 -13,5 -0.98,-2.35 1.68,-6.17 8,-11.49 6.68,-4.68 11.02,-6.32 13.01,-5" /><path
         id="path158"
         style="fill:#bf262b;fill-opacity:1;fill-rule:evenodd;stroke:none"
         d="m 1813.01,1898.01 c -7.03,4.69 -11.37,6.33 -13.01,5 -1.02,-2.35 1.64,-6.17 8.01,-11.49 6.64,-4.68 10.97,-6.32 12.97,-5 1.01,2.35 -1.64,6.18 -7.97,11.49" /><path
         id="path160"
         style="fill:#bf262b;fill-opacity:1;fill-rule:evenodd;stroke:none"
         d="m 1795.98,1924.02 c -6.64,4.65 -10.98,6.33 -12.97,5 -1.02,-2.34 1.64,-6.17 7.97,-11.52 6.68,-4.65 11.01,-6.33 13,-5 1.02,2.34 -1.64,6.17 -8,11.52" /><path
         id="path162"
         style="fill:#bf262b;fill-opacity:1;fill-rule:evenodd;stroke:none"
         d="m 1827.5,1917.03 c -6.68,4.65 -11.02,6.33 -13.01,5 -1.01,-2.34 1.68,-6.17 8.01,-11.52 6.64,-4.65 10.98,-6.33 13.01,-5 0.97,2.34 -1.68,6.17 -8.01,11.52" /><path
         id="path164"
         style="fill:#bf262b;fill-opacity:1;fill-rule:evenodd;stroke:none"
         d="m 1797.5,1948.01 c -1.02,-2.35 1.64,-6.17 8.01,-11.49 6.64,-4.68 10.97,-6.32 12.97,-5 1.01,2.35 -1.64,6.18 -7.97,11.49 -6.68,4.69 -11.02,6.33 -13.01,5" /><path
         id="path166"
         style="fill:#bf262b;fill-opacity:1;fill-rule:evenodd;stroke:none"
         d="m 1840,1940 c -7.66,3.67 -12.34,4.53 -14.02,2.5 -0.32,-2.3 3.16,-5.31 10.5,-8.98 7.66,-3.68 12.35,-4.5 14.03,-2.5 0.31,2.34 -3.17,5.35 -10.51,8.98" /><path
         id="path168"
         style="fill:#bf262b;fill-opacity:1;fill-rule:evenodd;stroke:none"
         d="m 1803.98,1964.53 c -0.31,-2.34 3.17,-5.35 10.51,-9.02 7.66,-3.67 12.35,-4.49 13.99,-2.5 0.35,2.34 -3.17,5.35 -10.47,9.02 -7.7,3.63 -12.35,4.49 -14.03,2.5" /><path
         id="path170"
         style="fill:#bf262b;fill-opacity:1;fill-rule:evenodd;stroke:none"
         d="m 1850,1961.52 c -7.66,3.68 -12.34,4.5 -14.02,2.5 -0.32,-2.34 3.16,-5.35 10.5,-9.02 7.66,-3.63 12.35,-4.49 14.03,-2.5 0.31,2.34 -3.17,5.35 -10.51,9.02" /><path
         id="path172"
         style="fill:#bf262b;fill-opacity:1;fill-rule:evenodd;stroke:none"
         d="m 1813.98,1986.02 c -0.31,-2.35 3.17,-5.36 10.51,-8.99 7.66,-3.67 12.35,-4.53 13.99,-2.5 0.35,2.31 -3.17,5.31 -10.47,8.99 -7.7,3.67 -12.35,4.49 -14.03,2.5" /><path
         id="path174"
         style="fill:#bf262b;fill-opacity:1;fill-rule:evenodd;stroke:none"
         d="m 1860.51,1982.5 c -7.7,3.67 -12.35,4.53 -14.03,2.5 -0.31,-2.3 3.17,-5.31 10.51,-8.98 7.66,-3.68 12.35,-4.5 13.99,-2.5 0.35,2.34 -3.17,5.35 -10.47,8.98" /><path
         id="path176"
         style="fill:#bf262b;fill-opacity:1;fill-rule:evenodd;stroke:none"
         d="m 1835,1998.52 c 7.66,-3.68 12.34,-4.5 13.98,-2.5 0.36,2.34 -3.16,5.35 -10.5,8.98 -7.66,3.67 -12.31,4.53 -13.99,2.5 -0.35,-2.3 3.17,-5.31 10.51,-8.98" /><path
         id="path178"
         style="fill:#bf262b;fill-opacity:1;fill-rule:evenodd;stroke:none"
         d="m 1870.51,2004.02 c -7.7,3.68 -12.35,4.5 -14.03,2.5 -0.31,-2.34 3.17,-5.35 10.51,-9.02 7.66,-3.63 12.35,-4.49 13.99,-2.5 0.35,2.34 -3.17,5.35 -10.47,9.02" /><path
         id="path180"
         style="fill:#bf262b;fill-opacity:1;fill-rule:evenodd;stroke:none"
         d="m 1845,2019.53 c 7.66,-3.67 12.34,-4.53 13.98,-2.5 0.36,2.31 -3.16,5.31 -10.5,8.99 -7.66,3.67 -12.31,4.49 -13.99,2.5 -0.35,-2.35 3.17,-5.36 10.51,-8.99" /><path
         id="path182"
         style="fill:#bf262b;fill-opacity:1;fill-rule:evenodd;stroke:none"
         d="m 1880.51,2025.51 c -7.7,3.67 -12.35,4.49 -14.03,2.5 -0.31,-2.35 3.17,-5.31 10.51,-8.99 7.66,-3.67 12.35,-4.49 13.99,-2.5 0.35,2.35 -3.17,5.32 -10.47,8.99" /><path
         id="path184"
         style="fill:#bf262b;fill-opacity:1;fill-rule:evenodd;stroke:none"
         d="m 1855,2041.02 c 7.66,-3.68 12.34,-4.5 13.98,-2.5 0.36,2.34 -3.16,5.35 -10.5,8.98 -7.66,3.67 -12.31,4.53 -13.99,2.5 -0.35,-2.3 3.17,-5.31 10.51,-8.98" /><path
         id="path186"
         style="fill:#bf262b;fill-opacity:1;fill-rule:evenodd;stroke:none"
         d="m 1890.98,2047.03 c -7.66,3.63 -12.31,4.49 -13.99,2.5 -0.35,-2.34 3.17,-5.35 10.51,-9.02 7.66,-3.67 12.34,-4.49 13.98,-2.5 0.36,2.34 -3.16,5.35 -10.5,9.02" /><path
         id="path188"
         style="fill:#bf262b;fill-opacity:1;fill-rule:evenodd;stroke:none"
         d="m 1865.51,2062.5 c 7.65,-3.63 12.3,-4.49 13.98,-2.5 0.35,2.34 -3.16,5.35 -10.51,9.02 -7.65,3.68 -12.34,4.5 -13.98,2.5 -0.35,-2.34 3.16,-5.35 10.51,-9.02" /><path
         id="path190"
         style="fill:#bf262b;fill-opacity:1;fill-rule:evenodd;stroke:none"
         d="m 1900,2065 c -6.33,5 -10.51,6.84 -12.5,5.51 -1.02,-2.35 1.64,-6.17 8.01,-11.49 6.64,-5 10.97,-6.83 12.97,-5.5 0.66,2.65 -2.15,6.48 -8.48,11.48" /><path
         id="path192"
         style="fill:#bf262b;fill-opacity:1;fill-rule:evenodd;stroke:none"
         d="m 1878.98,2085.51 c 6.68,-5 11.02,-6.84 13.01,-5.51 0.67,2.7 -2.15,6.52 -8.51,11.52 -6.33,5 -10.47,6.84 -12.5,5.51 -0.98,-2.34 1.68,-6.17 8,-11.52" /><path
         id="path194"
         style="fill:#bf262b;fill-opacity:1;fill-rule:evenodd;stroke:none"
         d="m 1914.49,2083.52 c -6.33,5 -10.51,6.83 -12.5,5.5 -1.01,-2.34 1.68,-6.17 8.01,-11.52 6.64,-5 10.98,-6.84 13.01,-5.47 0.66,2.66 -2.19,6.49 -8.52,11.49" /><path
         id="path196"
         style="fill:#bf262b;fill-opacity:1;fill-rule:evenodd;stroke:none"
         d="m 1893.48,2104.02 c 6.68,-5 11.01,-6.83 13,-5.5 0.67,2.65 -2.14,6.48 -8.47,11.48 -6.37,5 -10.51,6.84 -12.5,5.51 -1.02,-2.35 1.64,-6.17 7.97,-11.49" /><path
         id="path198"
         style="fill:#bf262b;fill-opacity:1;fill-rule:evenodd;stroke:none"
         d="m 1916.99,2106.52 c -1.33,-2.34 0.35,-6.83 5,-13.51 5,-6.33 8.67,-9.14 11.02,-8.48 -0.35,2.31 -0.67,4.65 -1.02,6.99 -1.01,2 -2.34,3.99 -3.98,5.98 -5,6.68 -8.67,9.69 -11.02,9.02" /><path
         id="path200"
         style="fill:#bf262b;fill-opacity:1;fill-rule:evenodd;stroke:none"
         d="m 1908.48,2136.52 c -1.33,-2.34 0.35,-6.83 5,-13.51 5,-6.33 8.67,-9.14 11.01,-8.48 0,0.31 0.16,0.67 0.51,0.98 -1.33,3.36 -2.66,6.68 -4.02,10 -0.32,0.66 -0.82,1.33 -1.49,1.99 -5,6.68 -8.67,9.69 -11.01,9.02" /><path
         id="path202"
         style="fill:#002a46;fill-opacity:1;fill-rule:nonzero;stroke:none"
         d="m 112.031,393.98 c -38.0505,0 -66.2107,9.649 -84.531,28.911 C 9.14063,442.27 0,466.641 0,496.02 c 0,41.011 13.75,73.671 41.25,97.96 27.5,24.379 61.09,36.571 100.781,36.571 7.578,0 12.071,-0.16 13.438,-0.473 1.953,-1.68 2.972,-9.687 2.972,-24.058 0,-14.379 -1.992,-23.051 -5.941,-25.942 h -3.441 c -25.739,0 -46.559,-6.058 -62.5004,-18.129 -6.6797,-5 -12.5,-12.808 -17.5,-23.429 -5,-10.629 -7.5,-23.442 -7.5,-38.442 0,-15 4.4609,-27.457 13.4414,-37.348 8.9492,-9.8 23.4414,-14.679 43.441,-14.679 15.7,0 29.571,2.969 41.559,8.898 1.328,0.711 2.191,1.102 2.5,1.102 2.699,-2.742 4.059,-11.723 4.059,-27.031 0,-15.321 -1.868,-24.461 -5.618,-27.5 -10.941,-6.329 -27.269,-9.54 -48.91,-9.54 z m 91.328,85.469 2.032,181.102 c 0,26.328 -0.391,44.14 -1.09,53.429 -0.629,9.379 -0.942,14.379 -0.942,15 0,3.321 5.551,7.11 16.719,11.411 11.133,4.379 21.012,6.558 29.692,6.558 8.75,0 13.121,-0.621 13.121,-1.871 -1.68,-12.418 -2.5,-55.738 -2.5,-130 l -1.09,-122.5 c 0,-23.047 0.347,-37.187 1.09,-42.5 1.64,-14.687 6.488,-28.047 14.531,-39.996 0,-3.32 -6.871,-8.633 -20.621,-15.941 -13.68,-7.379 -25.321,-11.09 -35,-11.09 -2.621,0 -5.59,5 -8.91,15 -3.36,10 -5.391,18.629 -6.09,25.929 -0.629,7.391 -0.942,25.86 -0.942,55.469 z" /><path
         id="path204"
         style="fill:#002a46;fill-opacity:1;fill-rule:nonzero;stroke:none"
         d="m 430.16,567.578 c 0,9.57 -5.16,14.371 -15.469,14.371 -13.671,0 -25.711,-6.988 -36.101,-20.929 -10.309,-13.989 -15.469,-30.79 -15.469,-50.469 0,-4.692 0.668,-7.031 2.039,-7.031 11.949,0.308 25.781,7.179 41.399,20.621 15.711,13.519 23.601,28.007 23.601,43.437 z M 473.75,408.52 c -11.371,-7.7 -33.551,-11.571 -66.559,-11.571 -33.05,0 -58.402,9.852 -76.101,29.531 -17.61,19.692 -26.399,45.942 -26.399,78.75 0,32.821 10.539,61.29 31.719,85.469 21.129,24.141 50.86,36.25 89.211,36.25 15.707,0 30.16,-4.179 43.289,-12.5 13.199,-8.359 19.84,-22.929 19.84,-43.75 0,-20.859 -9.141,-41.398 -27.34,-61.719 -18.129,-20.308 -42.89,-35.781 -74.219,-46.402 0,-4.058 4.059,-7.348 12.188,-9.848 8.199,-2.5 16.32,-3.75 24.371,-3.75 25.309,0 45.309,4.54 60,13.598 0.309,0.313 0.781,0.473 1.41,0.473 0.699,0 1.09,-3.211 1.09,-9.531 0,-19.379 -4.18,-34.379 -12.5,-45 z" /><path
         id="path206"
         style="fill:#002a46;fill-opacity:1;fill-rule:nonzero;stroke:none"
         d="m 705.039,520.078 c 0,-41.68 0.512,-66.058 1.563,-73.129 2.699,-18.359 8.359,-31.48 17.027,-39.367 0,-3.75 -6.641,-9.262 -19.84,-16.562 -13.129,-7.27 -25,-10.938 -35.629,-10.938 -3.039,0 -6.211,4.449 -9.531,13.277 -3.359,8.75 -5.27,15.231 -5.777,19.532 -0.551,4.379 -0.942,6.558 -1.25,6.558 l -1.563,-0.929 c -17.617,-13.95 -38.277,-20.938 -62.027,-20.938 -23.672,0 -41.883,5.738 -54.692,17.188 -12.808,11.441 -19.218,26.48 -19.218,45.152 0,18.75 4.058,34.527 12.187,47.348 8.199,12.808 17.813,22.531 28.75,29.21 11.012,6.641 23.199,12.04 36.563,16.098 20.308,6.641 36.289,10 47.968,10 l 1.09,0.473 c 0,16.328 -20.699,24.527 -62.031,24.527 -16.359,0 -28.551,-0.699 -36.559,-2.027 h -0.468 c 0,6.64 2.07,15 6.25,25 4.136,10 7.66,16.437 10.468,19.371 2.809,3.008 14.731,4.527 35.782,4.527 38.007,0 65.976,-7.258 83.91,-21.719 18.008,-14.492 27.027,-36.871 27.027,-67.179 z M 649.57,488.051 v 18.898 c 0,7.391 -0.16,11.102 -0.468,11.102 -22.301,0 -41.641,-5.86 -57.973,-17.5 -10.309,-7.43 -15.469,-16.571 -15.469,-27.5 0,-7 2.5,-12.821 7.5,-17.5 5,-4.692 12.539,-7.031 22.66,-7.031 10.2,0 20.039,2.96 29.532,8.902 9.449,6.019 14.218,16.25 14.218,30.629 z" /><path
         id="path208"
         style="fill:#002a46;fill-opacity:1;fill-rule:nonzero;stroke:none"
         d="m 814.648,736.02 c -0.628,-7.739 -1.488,-28.719 -2.5,-62.969 25,0 37.5,-0.551 37.5,-1.571 0,-11.359 -1.679,-21.48 -5,-30.308 -3.359,-8.75 -6.488,-13.121 -9.378,-13.121 h -23.59 c -0.629,-49.379 -0.942,-89.5 -0.942,-120.321 0,-30.851 0.473,-51.402 1.41,-61.71 2.071,-17.309 8.942,-31.489 20.622,-42.5 0,-3.641 -6.481,-8.95 -19.372,-15.938 -12.808,-7.07 -24.918,-10.633 -36.25,-10.633 -0.937,0 -2.886,1.68 -5.777,5 -2.82,3.36 -5.781,8.871 -8.91,16.571 -3.121,7.73 -5.121,15.191 -5.941,22.5 -0.86,7.261 -1.25,33.429 -1.25,78.429 0,45 0.468,87.5 1.41,127.5 l -27.969,-0.469 c -1.68,1.641 -2.5,8.911 -2.5,21.719 0,12.891 1.488,20.672 4.527,23.281 7.274,0.321 16.102,0.668 26.41,1.098 0,19.262 -0.546,31.723 -1.558,37.344 -0.942,5.699 -1.41,9.098 -1.41,10.156 0,3.32 5.699,7.113 17.191,11.402 11.559,4.379 21.641,6.571 30.309,6.571 8.629,0 12.968,-0.711 12.968,-2.031 z" /><path
         id="path210"
         style="fill:#002a46;fill-opacity:1;fill-rule:nonzero;stroke:none"
         d="m 1006.91,466.02 c 0,-18.051 -8.43,-34.141 -25.308,-48.29 -16.801,-14.14 -34.922,-24.289 -54.372,-30.46 -19.5,-6.141 -36.57,-9.219 -51.25,-9.219 -1.679,0 -4.031,1.988 -7.031,5.929 -8.359,11.059 -12.5,23.911 -12.5,38.602 v 3.438 c 26.012,0 45.852,4.449 59.531,13.429 13.629,9.071 20.469,18.442 20.469,28.129 0,6.25 -4.179,12.852 -12.5,19.844 -8.359,7.066 -17.5,13.277 -27.5,18.598 -10,5.308 -19.179,12.378 -27.5,21.25 -8.359,8.82 -12.5,18.121 -12.5,27.808 0,20.313 12.653,38.942 37.961,55.942 25.32,16.949 52.352,25.46 81.102,25.46 3.316,0 7.648,-4.601 12.968,-13.75 5.309,-9.179 8.122,-18.589 8.43,-28.281 -6.68,0 -16.68,-1.988 -30,-5.929 -26.359,-8.36 -39.531,-18.68 -39.531,-30.942 0,-8.75 13.012,-20.629 39.07,-35.629 10,-5.621 19.141,-13.429 27.5,-23.429 8.321,-10 12.651,-20.86 12.961,-32.5 z" /><path
         id="path212"
         style="fill:#002a46;fill-opacity:1;fill-rule:nonzero;stroke:none"
         d="m 1259.18,488.52 c 0,-38.68 1.8,-66.329 5.47,-82.969 0,-3.321 -7.19,-6.801 -21.56,-10.469 -14.3,-3.75 -26.57,-5.633 -36.88,-5.633 l -13.59,1.571 c -1.25,1.992 -1.88,8.82 -1.88,20.46 0,11.641 0.63,36.801 1.88,75.469 -18.99,-0.929 -48.71,-1.398 -89.22,-1.398 -40.55,0 -61.41,0.66 -62.66,2.027 -3.04,2.891 -5.58,7.813 -7.65,14.692 -2,6.871 -3.13,12.96 -3.44,18.281 l -0.47,7.5 c 0,8.937 20,43.75 60,104.371 40,60.699 70.66,102.738 92.03,126.098 2.27,2.261 8.75,4.101 19.38,5.46 10.7,1.329 21.25,2.04 31.56,2.04 10.31,0 15.47,-1.532 15.47,-4.54 0,-0.621 -0.16,-1.089 -0.47,-1.402 -20.63,-23.75 -30.94,-36.957 -30.94,-39.527 30,-0.75 45,-3.25 45,-7.5 -1.68,-50.321 -2.5,-101.172 -2.5,-152.5 V 541.48 c 16.64,0 26.88,0.399 30.63,1.25 3.82,0.821 5.78,0.239 5.78,-1.71 0,-9.379 -2.42,-19.61 -7.19,-30.629 -4.81,-10.942 -8.55,-17.731 -11.25,-20.313 -0.31,-0.43 -6.17,-0.937 -17.5,-1.558 z m -118.44,51.558 53.91,0.473 c 2.38,55.929 3.59,95.148 3.59,117.648 0,22.5 -0.54,33.75 -1.56,33.75 -7.3,-7.301 -24.65,-31.871 -52.03,-73.75 -27.31,-41.789 -40.94,-66.988 -40.94,-75.621 0,-1.68 12.34,-2.5 37.03,-2.5 z" /><path
         id="path214"
         style="fill:#002a46;fill-opacity:1;fill-rule:nonzero;stroke:none"
         d="m 1508.75,520.078 c 0,-41.68 0.51,-66.058 1.56,-73.129 2.7,-18.359 8.36,-31.48 17.03,-39.367 0,-3.75 -6.64,-9.262 -19.84,-16.562 -13.12,-7.27 -25,-10.938 -35.62,-10.938 -3.05,0 -6.22,4.449 -9.54,13.277 -3.36,8.75 -5.27,15.231 -5.78,19.532 -0.54,4.379 -0.94,6.558 -1.25,6.558 l -1.56,-0.929 c -17.62,-13.95 -38.28,-20.938 -62.03,-20.938 -23.67,0 -41.88,5.738 -54.69,17.188 -12.81,11.441 -19.22,26.48 -19.22,45.152 0,18.75 4.07,34.527 12.19,47.348 8.2,12.808 17.81,22.531 28.75,29.21 11.02,6.641 23.2,12.04 36.56,16.098 20.31,6.641 36.29,10 47.97,10 l 1.1,0.473 c 0,16.328 -20.71,24.527 -62.04,24.527 -16.36,0 -28.55,-0.699 -36.56,-2.027 h -0.47 c 0,6.64 2.07,15 6.25,25 4.14,10 7.66,16.437 10.47,19.371 2.81,3.008 14.73,4.527 35.78,4.527 38.01,0 65.98,-7.258 83.91,-21.719 18.01,-14.492 27.03,-36.871 27.03,-67.179 z m -55.47,-32.027 v 18.898 c 0,7.391 -0.16,11.102 -0.47,11.102 -22.3,0 -41.64,-5.86 -57.97,-17.5 -10.31,-7.43 -15.46,-16.571 -15.46,-27.5 0,-7 2.5,-12.821 7.5,-17.5 5,-4.692 12.53,-7.031 22.65,-7.031 10.2,0 20.04,2.96 29.53,8.902 9.46,6.019 14.22,16.25 14.22,30.629 z" /><path
         id="path216"
         style="fill:#002a46;fill-opacity:1;fill-rule:nonzero;stroke:none"
         d="m 1618.36,736.02 c -0.63,-7.739 -1.48,-28.719 -2.5,-62.969 25,0 37.5,-0.551 37.5,-1.571 0,-11.359 -1.68,-21.48 -5,-30.308 -3.36,-8.75 -6.48,-13.121 -9.38,-13.121 h -23.59 c -0.62,-49.379 -0.94,-89.5 -0.94,-120.321 0,-30.851 0.47,-51.402 1.41,-61.71 2.07,-17.309 8.94,-31.489 20.62,-42.5 0,-3.641 -6.48,-8.95 -19.37,-15.938 -12.81,-7.07 -24.92,-10.633 -36.25,-10.633 -0.94,0 -2.89,1.68 -5.78,5 -2.81,3.36 -5.78,8.871 -8.91,16.571 -3.12,7.73 -5.12,15.191 -5.94,22.5 -0.85,7.261 -1.25,33.429 -1.25,78.429 0,45 0.47,87.5 1.41,127.5 l -27.97,-0.469 c -1.68,1.641 -2.5,8.911 -2.5,21.719 0,12.891 1.49,20.672 4.53,23.281 7.27,0.321 16.1,0.668 26.41,1.098 0,19.262 -0.55,31.723 -1.56,37.344 -0.94,5.699 -1.41,9.098 -1.41,10.156 0,3.32 5.7,7.113 17.19,11.402 11.56,4.379 21.64,6.571 30.31,6.571 8.63,0 12.97,-0.711 12.97,-2.031 z" /><path
         id="path218"
         style="fill:#002a46;fill-opacity:1;fill-rule:nonzero;stroke:none"
         d="m 1670.2,505.551 -1.57,173.429 c 0,32.391 0.82,49.418 2.5,51.098 3.95,3.942 10.39,7.731 19.38,11.402 9.06,3.641 17.73,5.469 26.09,5.469 8.32,0 12.5,-0.621 12.5,-1.871 -0.31,-3.047 -1.01,-24.918 -2.03,-65.629 -0.94,-40.621 -1.41,-67.301 -1.41,-80 v -4.371 c 0,-1.68 0.47,-2.5 1.41,-2.5 l 10,10 c 3.75,3.32 11.17,7.891 22.34,13.75 11.14,5.82 21.61,8.75 31.41,8.75 9.88,0 18.05,-1.68 24.53,-5 6.56,-3.359 11.95,-7.348 16.25,-12.027 4.38,-4.692 8.01,-11.492 10.94,-20.321 3.01,-8.859 5.23,-17.031 6.72,-24.531 1.56,-7.5 2.85,-17.73 3.9,-30.621 0.94,-17.738 1.41,-40.078 1.41,-67.027 l -1.87,-66.571 c -1.06,-2.57 -6.72,-4.878 -17.04,-6.871 -10.31,-2.07 -18.82,-3.129 -25.46,-3.129 l -16.57,2.5 c 3.32,30 5,58.79 5,86.411 0,27.699 -2.03,48.75 -6.09,63.129 -3.99,14.371 -12.11,21.558 -24.38,21.558 -8.04,0 -15.54,-3.199 -22.5,-9.527 -6.99,-6.371 -11.83,-12.742 -14.53,-19.071 l -4.53,-9.531 c 0.7,-22.929 1.1,-47.57 1.1,-73.898 0,-26.371 -0.86,-40.242 -2.5,-41.571 -10,-8.941 -28.36,-13.429 -55,-13.429 -2.74,0 -4.07,0.469 -4.07,1.398 2.7,14.692 4.07,50.86 4.07,108.602 z" /><path
         id="path220"
         style="fill:#002a46;fill-opacity:1;fill-rule:nonzero;stroke:none"
         d="m 1899.65,479.449 2.03,181.102 c 0,26.328 -0.39,44.14 -1.09,53.429 -0.63,9.379 -0.94,14.379 -0.94,15 0,3.321 5.55,7.11 16.72,11.411 11.13,4.379 21.01,6.558 29.68,6.558 8.75,0 13.13,-0.621 13.13,-1.871 -1.68,-12.418 -2.5,-55.738 -2.5,-130 l -1.09,-122.5 c 0,-23.047 0.35,-37.187 1.09,-42.5 1.64,-14.687 6.48,-28.047 14.53,-39.996 0,-3.32 -6.87,-8.633 -20.62,-15.941 -13.68,-7.379 -25.32,-11.09 -35,-11.09 -2.62,0 -5.59,5 -8.91,15 -3.36,10 -5.39,18.629 -6.09,25.929 -0.63,7.391 -0.94,25.86 -0.94,55.469 z" /><path
         id="path222"
         style="fill:#002a46;fill-opacity:1;fill-rule:nonzero;stroke:none"
         d="m 2126.45,567.578 c 0,9.57 -5.16,14.371 -15.47,14.371 -13.68,0 -25.71,-6.988 -36.1,-20.929 -10.31,-13.989 -15.47,-30.79 -15.47,-50.469 0,-4.692 0.67,-7.031 2.04,-7.031 11.95,0.308 25.78,7.179 41.4,20.621 15.7,13.519 23.6,28.007 23.6,43.437 z m 43.59,-159.058 c -11.37,-7.7 -33.56,-11.571 -66.56,-11.571 -33.05,0 -58.4,9.852 -76.1,29.531 -17.61,19.692 -26.4,45.942 -26.4,78.75 0,32.821 10.54,61.29 31.72,85.469 21.13,24.141 50.85,36.25 89.21,36.25 15.71,0 30.16,-4.179 43.29,-12.5 13.2,-8.359 19.84,-22.929 19.84,-43.75 0,-20.859 -9.14,-41.398 -27.34,-61.719 -18.13,-20.308 -42.9,-35.781 -74.22,-46.402 0,-4.058 4.06,-7.348 12.18,-9.848 8.21,-2.5 16.33,-3.75 24.38,-3.75 25.31,0 45.31,4.54 60,13.598 0.31,0.313 0.78,0.473 1.41,0.473 0.7,0 1.09,-3.211 1.09,-9.531 0,-19.379 -4.18,-34.379 -12.5,-45 z" /><path
         id="path224"
         style="fill:#002a46;fill-opacity:1;fill-rule:nonzero;stroke:none"
         d="m 2281.45,736.02 c -0.63,-7.739 -1.49,-28.719 -2.5,-62.969 25,0 37.5,-0.551 37.5,-1.571 0,-11.359 -1.68,-21.48 -5,-30.308 -3.36,-8.75 -6.49,-13.121 -9.38,-13.121 h -23.59 c -0.63,-49.379 -0.94,-89.5 -0.94,-120.321 0,-30.851 0.47,-51.402 1.41,-61.71 2.07,-17.309 8.94,-31.489 20.62,-42.5 0,-3.641 -6.48,-8.95 -19.37,-15.938 -12.82,-7.07 -24.93,-10.633 -36.25,-10.633 -0.94,0 -2.9,1.68 -5.79,5 -2.81,3.36 -5.78,8.871 -8.9,16.571 -3.13,7.73 -5.12,15.191 -5.94,22.5 -0.86,7.261 -1.25,33.429 -1.25,78.429 0,45 0.47,87.5 1.41,127.5 l -27.97,-0.469 c -1.68,1.641 -2.5,8.911 -2.5,21.719 0,12.891 1.48,20.672 4.53,23.281 7.26,0.321 16.09,0.668 26.41,1.098 0,19.262 -0.55,31.723 -1.57,37.344 -0.93,5.699 -1.4,9.098 -1.4,10.156 0,3.32 5.7,7.113 17.18,11.402 11.57,4.379 21.64,6.571 30.32,6.571 8.63,0 12.97,-0.711 12.97,-2.031 z" /><path
         id="path226"
         style="fill:#002a46;fill-opacity:1;fill-rule:nonzero;stroke:none"
         d="m 2449.69,567.578 c 0,9.57 -5.16,14.371 -15.47,14.371 -13.67,0 -25.7,-6.988 -36.1,-20.929 -10.31,-13.989 -15.46,-30.79 -15.46,-50.469 0,-4.692 0.66,-7.031 2.03,-7.031 11.95,0.308 25.78,7.179 41.4,20.621 15.71,13.519 23.6,28.007 23.6,43.437 z m 43.59,-159.058 c -11.37,-7.7 -33.55,-11.571 -66.56,-11.571 -33.05,0 -58.4,9.852 -76.1,29.531 -17.61,19.692 -26.4,45.942 -26.4,78.75 0,32.821 10.55,61.29 31.72,85.469 21.13,24.141 50.86,36.25 89.22,36.25 15.7,0 30.15,-4.179 43.28,-12.5 13.2,-8.359 19.84,-22.929 19.84,-43.75 0,-20.859 -9.14,-41.398 -27.34,-61.719 -18.13,-20.308 -42.89,-35.781 -74.22,-46.402 0,-4.058 4.06,-7.348 12.19,-9.848 8.2,-2.5 16.32,-3.75 24.37,-3.75 25.31,0 45.31,4.54 60,13.598 0.31,0.313 0.78,0.473 1.41,0.473 0.7,0 1.09,-3.211 1.09,-9.531 0,-19.379 -4.18,-34.379 -12.5,-45 z" /><path
         id="path228"
         style="fill:#002a46;fill-opacity:1;fill-rule:nonzero;stroke:none"
         d="m 2686.6,466.02 c 0,-18.051 -8.44,-34.141 -25.31,-48.29 -16.8,-14.14 -34.92,-24.289 -54.38,-30.46 -19.49,-6.141 -36.56,-9.219 -51.25,-9.219 -1.68,0 -4.02,1.988 -7.03,5.929 -8.36,11.059 -12.5,23.911 -12.5,38.602 v 3.438 c 26.02,0 45.86,4.449 59.53,13.429 13.64,9.071 20.47,18.442 20.47,28.129 0,6.25 -4.18,12.852 -12.5,19.844 -8.36,7.066 -17.5,13.277 -27.5,18.598 -10,5.308 -19.18,12.378 -27.5,21.25 -8.36,8.82 -12.5,18.121 -12.5,27.808 0,20.313 12.66,38.942 37.97,55.942 25.31,16.949 52.35,25.46 81.1,25.46 3.32,0 7.65,-4.601 12.96,-13.75 5.32,-9.179 8.13,-18.589 8.44,-28.281 -6.68,0 -16.68,-1.988 -30,-5.929 -26.37,-8.36 -39.53,-18.68 -39.53,-30.942 0,-8.75 13.01,-20.629 39.06,-35.629 10,-5.621 19.14,-13.429 27.5,-23.429 8.32,-10 12.66,-20.86 12.97,-32.5 z" /><path
         id="path230"
         style="fill:#002a46;fill-opacity:1;fill-rule:nonzero;stroke:none"
         d="m 741.449,148.199 0.153,22.66 c 0,5.942 -0.122,9.223 -0.313,9.84 -1.559,1.571 -3.59,5.242 -6.09,11.102 -2.429,5.929 -3.597,9.719 -3.597,11.398 1.558,1.449 26.128,2.192 73.75,2.192 11.636,0 17.5,-0.27 17.5,-0.782 0,-2.929 -0.704,-6.168 -2.032,-9.687 -1.25,-3.442 -2.621,-6.25 -4.058,-8.442 -1.492,-2.101 -2.5,-3.039 -3.133,-2.808 -0.617,0.199 -3.551,0.308 -8.75,0.308 -5.109,0 -12.18,-0.308 -21.25,-0.929 -9.059,-0.629 -14.02,-1.371 -14.84,-2.192 -0.859,-0.859 -1.25,-8.558 -1.25,-23.129 l 0.16,-8.75 c 5.621,0.079 13.821,0.161 24.68,0.161 10.941,0 16.41,-0.231 16.41,-0.621 0,-5 -1.68,-10.75 -5,-17.188 -1.25,-2.312 -2.027,-3.363 -2.34,-3.133 -3.679,0 -9.929,-0.308 -18.75,-0.929 -8.75,-0.629 -13.828,-1.372 -15.16,-2.188 -0.238,-0.242 -0.309,-6.172 -0.309,-17.812 0,-11.5708 0.348,-17.7387 1.09,-18.438 2.27,-2.1914 14.301,-3.2812 36.09,-3.2812 8.828,0 14.77,0.1875 17.82,0.6211 3.122,0.5078 4.68,0.707 4.68,0.6289 0,-3.3594 -1.172,-7.3516 -3.43,-12.0313 -2.191,-4.6093 -4.531,-8.0898 -7.031,-10.4687 -1.488,-1.332 -14.07,-2.0313 -37.82,-2.0313 -23.668,0 -35.899,0.5821 -36.719,1.711 -0.859,0.6289 -1.25,7.3515 -1.25,20.1601 0,12.8086 0.078,26.3284 0.32,40.6294 -2.5,2.261 -4.929,5.781 -7.191,10.46 -2.309,4.77 -3.437,8.829 -3.437,12.192 0,0.199 3.668,0.469 11.097,0.777 z m 128,-86.867 c -3.98,0 -7.179,0.4297 -9.679,1.25 0,3.0391 -4.5,17.8477 -13.442,44.527 -8.867,26.641 -13.277,42.813 -13.277,48.442 0,0.187 0.699,0.781 2.179,1.719 1.571,0.929 4.149,1.871 7.821,2.812 3.629,1.008 7.73,1.559 12.34,1.559 8.519,-34.801 15,-57.032 19.379,-66.7191 0.07,-0.6211 0.351,-0.6211 0.781,0 2.5,4.457 6.328,16.3281 11.558,35.6291 5.192,19.25 8.051,31.871 8.59,37.808 0.082,0.821 1.602,1.563 4.531,2.192 3.008,0.621 6.879,0.929 11.571,0.929 4.758,0 8,-0.742 9.679,-2.179 0,-4.071 -5,-22.192 -15,-54.379 -9.921,-32.1134 -15.39,-48.672 -16.402,-49.6915 -1.988,-1.9492 -7.418,-3.1602 -16.25,-3.5899 z" /><path
         id="path232"
         style="fill:#002a46;fill-opacity:1;fill-rule:nonzero;stroke:none"
         d="m 982.77,132.73 c 0,4.071 -2.18,6.102 -6.559,6.102 -5.742,0 -10.781,-2.973 -15.16,-8.91 -4.289,-5.863 -6.403,-12.891 -6.403,-21.09 0,-1.992 0.231,-2.973 0.782,-2.973 5,0.192 10.781,3.121 17.34,8.75 6.64,5.7 10,11.762 10,18.121 z m 18.28,-66.7105 c -4.8,-3.2109 -14.14,-4.8476 -27.96,-4.8476 -13.871,0 -24.539,4.1367 -32.039,12.3476 -7.422,8.3203 -11.09,19.3711 -11.09,33.1215 0,13.75 4.418,25.66 13.277,35.781 8.953,10.199 21.492,15.308 37.66,15.308 6.563,0 12.582,-1.789 18.122,-5.308 5.51,-3.442 8.28,-9.531 8.28,-18.281 0,-8.75 -3.86,-17.422 -11.562,-25.942 -7.617,-8.5506 -17.968,-15.0779 -31.09,-19.5271 0,-1.6836 1.723,-3.0508 5.153,-4.0625 3.437,-1.0586 6.801,-1.5586 10.16,-1.5586 10.629,0 18.988,1.8711 25.159,5.6211 0.19,0.0781 0.39,0.1601 0.62,0.1601 0.31,0 0.47,-1.332 0.47,-3.9101 0,-8.1211 -1.72,-14.4531 -5.16,-18.9024 z" /><path
         id="path234"
         style="fill:#002a46;fill-opacity:1;fill-rule:nonzero;stroke:none"
         d="m 1023.63,94.3008 -0.47,47.8082 c 0,8.2 0.32,12.582 0.94,13.121 1.45,1.571 4.06,2.891 7.81,4.071 3.83,1.25 7.39,1.871 10.63,1.871 3.32,0 5,-0.391 5,-1.09 -0.43,-3.75 -0.63,-8.094 -0.63,-12.973 0,-4.808 0.08,-7.187 0.32,-7.187 0.31,0 0.62,0.16 0.93,0.469 0.32,0.39 0.79,0.98 1.41,1.718 0.63,0.821 1.91,2.192 3.91,4.063 2.07,1.949 4.29,3.668 6.72,5.16 6.01,3.828 12.42,5.777 19.21,5.777 1.14,-1.8 1.72,-4.527 1.72,-8.277 0,-8.051 -1.01,-13.711 -2.97,-17.031 l -0.78,-1.719 -2.81,0.469 c -10,0 -17.89,-4.18 -23.59,-12.5 -2.31,-3.36 -3.44,-5.86 -3.44,-7.5 V 92.1094 c 0,-16.8789 -0.24,-25.5508 -0.63,-25.9375 -3.98,-3.75 -11.68,-5.6211 -23.12,-5.6211 -1.17,0 -1.72,0.2305 -1.72,0.6211 1.02,5.5078 1.56,16.5586 1.56,33.1289 z" /><path
         id="path236"
         style="fill:#002a46;fill-opacity:1;fill-rule:nonzero;stroke:none"
         d="m 1167.15,124.609 0.15,-55.9371 c 0,-10.8203 -1.48,-20.5117 -4.37,-29.0625 -2.81,-8.5196 -6.33,-15.0781 -10.47,-19.6875 -4.06,-4.6914 -8.75,-8.4727 -14.06,-11.40237 -8.75,-4.89062 -17.62,-7.34765 -26.56,-7.34765 -0.43,0 -1.25,1.05859 -2.5,3.1289 -1.25,2.10938 -2.46,4.96094 -3.6,8.58982 -1.17,3.5586 -1.72,6.8399 -1.72,9.8399 5.39,0 10.78,1.0586 16.1,3.1289 5.31,1.9922 8.98,4.1406 11.09,6.4101 2.07,2.3008 4.14,5.2305 6.25,8.75 4.38,6.8711 6.56,18.0391 6.56,33.4297 l -0.15,6.1016 c 0,0.8203 -0.16,1.25 -0.47,1.25 -0.31,0 -0.63,-0.2422 -0.94,-0.6289 -0.23,-0.4336 -0.55,-0.9414 -0.94,-1.5625 -0.43,-0.6289 -1.48,-1.8008 -3.12,-3.4375 -1.56,-1.5625 -3.28,-2.9727 -5.16,-4.2227 -4.92,-3.4297 -9.84,-5.1484 -14.84,-5.1484 -4.92,0 -8.83,0.6211 -11.72,1.8711 -2.81,1.3281 -5.23,2.9687 -7.19,4.8476 -1.87,1.9493 -3.44,4.7188 -4.69,8.2813 -1.25,3.6289 -2.26,6.9492 -2.96,10 -0.63,3.1211 -1.1,7.3398 -1.41,12.6482 -0.55,7.391 -0.78,15.082 -0.78,23.133 0,11.008 0.55,20.039 1.72,27.027 l 0.62,2.973 c 0,0.938 2.11,1.867 6.41,2.809 4.26,1.019 7.73,1.558 10.47,1.558 l 6.72,-1.09 c -1.49,-13.871 -2.19,-25.55 -2.19,-35 0,-9.488 0.94,-17.418 2.81,-23.75 1.95,-6.2496 5.24,-9.3785 9.84,-9.3785 4.69,0 8.36,1.3281 11.1,4.0703 2.69,2.6875 4.41,5.3902 5.15,8.1212 l 1.1,3.91 c -0.31,8.828 -0.47,18.316 -0.47,28.438 0,10.191 0.35,15.621 1.09,16.25 1.76,1.871 4.93,3.281 9.53,4.21 4.57,1.02 8.21,1.571 10.94,1.571 2.81,0 4.22,-0.242 4.22,-0.629 -1.05,-6.563 -1.56,-17.934 -1.56,-34.063 z" /><path
         id="path238"
         style="fill:#002a46;fill-opacity:1;fill-rule:nonzero;stroke:none"
         d="m 1305.74,185.859 c -2.19,0.313 -4.76,0.473 -7.65,0.473 -2.93,0 -6.49,-0.312 -10.63,-0.941 -4.06,-0.551 -8.36,-1.371 -12.81,-2.5 -4.38,-1.172 -7.97,-3.051 -10.78,-5.621 -2.74,-2.5 -4.07,-5.551 -4.07,-9.071 0,-3.551 2.11,-6.719 6.41,-9.527 4.26,-2.731 9.38,-5.231 15.31,-7.5 6.02,-2.301 12.07,-4.961 18.13,-7.973 6.13,-2.929 11.33,-7.179 15.62,-12.808 4.26,-5.621 6.41,-12.461 6.41,-20.469 0,-14.1837 -6.8,-26.2111 -20.31,-36.09 -13.44,-9.7734 -30.47,-14.6914 -51.1,-14.6914 -10.31,0 -18.04,0.5508 -23.12,1.5586 -1.25,1.25 -1.88,8.75 -1.88,22.5 0,13.8321 0.32,22.1918 0.94,24.9998 0.39,1.25 2.85,2.742 7.34,4.531 4.46,1.879 8.79,2.821 12.97,2.821 0,-16.4924 1.76,-26.4924 5.32,-30.0002 1.32,-1.3711 3.98,-2.0313 7.96,-2.0313 8.95,0 16.72,2.5 23.29,7.5 6.64,5 10,10.9295 10,17.8125 0,4.688 -2.19,8.75 -6.57,12.188 -4.29,3.511 -9.53,6.562 -15.78,9.062 -6.25,2.578 -12.46,5.348 -18.59,8.277 -6.17,2.891 -11.41,6.871 -15.78,11.871 -4.3,5 -6.41,10.942 -6.41,17.821 0,10.187 6.09,19.531 18.28,27.969 12.27,8.511 30.04,12.812 53.28,12.812 5.51,0 8.6,-0.391 9.22,-1.102 0.2,-0.429 0.31,-1.48 0.31,-3.121 0,-1.558 -0.54,-4.648 -1.56,-9.218 -0.94,-4.61 -2.19,-7.77 -3.75,-9.532 z" /><path
         id="path240"
         style="fill:#002a46;fill-opacity:1;fill-rule:nonzero;stroke:none"
         d="m 1365.31,203.52 c -0.31,-3.25 -0.7,-12.04 -1.09,-26.411 10.51,0 15.78,-0.23 15.78,-0.629 0,-4.8 -0.74,-9.058 -2.19,-12.808 -1.36,-3.672 -2.65,-5.473 -3.9,-5.473 h -9.85 c -0.31,-20.738 -0.47,-37.609 -0.47,-50.617 0,-12.9336 0.2,-21.5312 0.63,-25.7812 0.82,-7.3125 3.67,-13.25 8.59,-17.8203 0,-1.5586 -2.73,-3.7813 -8.12,-6.711 -5.31,-3.0078 -10.39,-4.539 -15.16,-4.539 -0.43,0 -1.25,0.75 -2.5,2.1914 -1.17,1.3672 -2.42,3.6679 -3.75,6.8789 -1.25,3.2383 -2.11,6.3203 -2.5,9.3711 -0.31,3.1289 -0.47,14.0976 -0.47,32.9691 0,18.949 0.2,36.8 0.63,53.589 l -11.72,-0.148 c -0.74,0.699 -1.1,3.75 -1.1,9.059 0,5.39 0.63,8.668 1.88,9.839 3.12,0.079 6.8,0.239 11.09,0.469 0,8.133 -0.23,13.321 -0.62,15.633 -0.43,2.379 -0.63,3.789 -0.63,4.219 0,1.437 2.39,3.039 7.19,4.84 4.88,1.879 9.14,2.808 12.81,2.808 3.64,0 5.47,-0.308 5.47,-0.929 z" /><path
         id="path242"
         style="fill:#002a46;fill-opacity:1;fill-rule:nonzero;stroke:none"
         d="m 1435.98,132.73 c 0,4.071 -2.19,6.102 -6.57,6.102 -5.74,0 -10.78,-2.973 -15.15,-8.91 -4.3,-5.863 -6.41,-12.891 -6.41,-21.09 0,-1.992 0.24,-2.973 0.78,-2.973 5,0.192 10.78,3.121 17.35,8.75 6.64,5.7 10,11.762 10,18.121 z m 18.28,-66.7105 c -4.81,-3.2109 -14.14,-4.8476 -27.97,-4.8476 -13.87,0 -24.53,4.1367 -32.03,12.3476 -7.42,8.3203 -11.1,19.3711 -11.1,33.1215 0,13.75 4.42,25.66 13.29,35.781 8.94,10.199 21.48,15.308 37.65,15.308 6.56,0 12.58,-1.789 18.13,-5.308 5.5,-3.442 8.28,-9.531 8.28,-18.281 0,-8.75 -3.87,-17.422 -11.56,-25.942 -7.62,-8.5506 -17.97,-15.0779 -31.1,-19.5271 0,-1.6836 1.72,-3.0508 5.16,-4.0625 3.44,-1.0586 6.79,-1.5586 10.15,-1.5586 10.63,0 18.99,1.8711 25.16,5.6211 0.2,0.0781 0.39,0.1601 0.63,0.1601 0.31,0 0.46,-1.332 0.46,-3.9101 0,-8.1211 -1.71,-14.4531 -5.15,-18.9024 z" /><path
         id="path244"
         style="fill:#002a46;fill-opacity:1;fill-rule:nonzero;stroke:none"
         d="m 1500.16,167.891 -0.16,-9.84 c 37.19,0 55.78,-14.461 55.78,-43.281 0,-7.821 -1.56,-14.9692 -4.69,-21.4106 -3.12,-6.3711 -7.03,-11.4102 -11.71,-15.1602 -4.61,-3.6679 -9.61,-6.7187 -15,-9.2187 -9.38,-4.3711 -17.82,-6.5586 -25.32,-6.5586 v -3.1211 c 0,-21.0195 0.55,-35.0391 1.72,-42.0313 -1.8,-1.7578 -4.92,-3.1679 -9.37,-4.2187 -4.5,-1.0195 -8.13,-1.5703 -10.94,-1.5703 -2.81,0 -4.22,0.2383 -4.22,0.6289 -0.63,4.4922 -0.94,13.7109 -0.94,27.6601 l 1.1,97.6525 c 0,11.449 -0.24,19.418 -0.63,23.91 1.64,1.637 4.45,3.277 8.44,4.84 4.06,1.558 7.54,2.348 10.47,2.348 2.89,0 4.72,-0.239 5.47,-0.629 z m -1.1,-71.559 0.32,-10.6328 c 8.51,0 15.97,2.4219 22.34,7.3516 6.44,4.8789 9.69,11.9492 9.69,21.2502 0,15.078 -10.59,22.648 -31.72,22.648 l -0.16,-2.648 c 0,-1.879 0,-4.301 0,-7.192 z" /><path
         id="path246"
         style="fill:#002a46;fill-opacity:1;fill-rule:nonzero;stroke:none"
         d="m 1673.67,59.4492 c -20.43,0 -35.9,5.9024 -46.4,17.6602 -10.55,11.7617 -15.79,26.9496 -15.79,45.6206 0,15.821 3.48,30.508 10.47,44.071 4.07,8 9.14,15 15.32,20.929 6.13,6.02 14.45,11.02 25,15 10.5,3.95 22.42,5.942 35.78,5.942 4.45,0 8.43,-0.473 11.87,-1.402 3.52,-0.86 5.31,-1.372 5.31,-1.571 0,-6.789 -0.46,-14.488 -1.4,-23.117 -0.86,-8.562 -1.37,-12.891 -1.56,-12.973 -0.75,-0.738 -3.68,-1.879 -8.75,-3.437 -5.12,-1.563 -8.91,-2.34 -11.41,-2.34 v 1.25 c 0,6.328 -0.94,10.777 -2.81,13.277 -1.8,2.5 -4.92,3.75 -9.38,3.75 -9.92,0 -19.14,-5.23 -27.65,-15.629 -8.56,-10.429 -12.82,-24.761 -12.82,-42.96 0,-9.61 2.35,-18.25 7.03,-25.938 2.58,-4.0625 6.29,-7.4218 11.1,-10 4.76,-2.5 10.51,-3.75 17.19,-3.75 13.12,0 25.93,6.0899 38.43,18.277 0.51,0 1.64,-0.898 3.44,-2.6598 1.76,-1.6797 3.48,-4.0195 5.16,-7.0273 3.43,-5.543 5.15,-8.9805 5.15,-10.3125 0,-1.25 -2.18,-3.5899 -6.56,-7.0274 -4.3,-3.3632 -10.86,-6.8007 -19.69,-10.3125 -8.75,-3.5195 -17.77,-5.3203 -27.03,-5.3203 z" /><path
         id="path248"
         style="fill:#002a46;fill-opacity:1;fill-rule:nonzero;stroke:none"
         d="m 1825.39,109.77 c 0,-13.3598 -4.02,-24.9302 -12.03,-34.688 -8.05,-9.6914 -18.98,-14.5312 -32.81,-14.5312 -13.75,0 -24.61,4.289 -32.5,12.8086 -7.82,8.5195 -11.72,19.6094 -11.72,33.2816 0,13.629 4.84,25.699 14.53,36.25 9.76,10.629 22.97,15.941 39.53,15.941 6.64,-0.312 10.23,-0.742 10.78,-1.25 0.63,-0.551 0.94,-1.883 0.94,-4.062 0,-2.11 -0.23,-4.379 -0.63,-6.879 2.07,0 4.73,-1.25 7.97,-3.75 3.32,-2.422 6.02,-4.84 8.13,-7.34 2.19,-2.5 3.98,-6.063 5.47,-10.629 1.56,-4.613 2.34,-9.652 2.34,-15.152 z m -30.62,14.679 c -3.25,2.071 -6.41,3.133 -9.54,3.133 h -1.56 c -0.31,0.508 -0.47,1.637 -0.47,3.438 0,1.871 0.2,3.628 0.63,5.312 -5.74,0 -11.1,-2.621 -16.1,-7.812 -4.92,-5.122 -7.34,-12.309 -7.34,-21.571 0,-10.9295 3.48,-18.5076 10.47,-22.6482 2.58,-1.6797 6.25,-2.5 10.94,-2.5 4.68,0 9.1,2.1094 13.28,6.3984 4.14,4.3828 6.25,10.8203 6.25,19.3828 0,8.508 -2.19,14.137 -6.56,16.867 z" /><path
         id="path250"
         style="fill:#002a46;fill-opacity:1;fill-rule:nonzero;stroke:none"
         d="m 1893.98,73.9805 -0.31,4.3789 -0.15,0.4726 c -3.36,-5.2422 -7.58,-9.3828 -12.66,-12.5 -5.12,-3.0117 -10.12,-4.5312 -15,-4.5312 -14.69,0 -23.13,11.3984 -25.31,34.2187 -0.24,3.6289 -0.32,13.0005 -0.32,28.1215 0,15.078 0.63,24.058 1.88,26.879 3.63,3 9.53,4.531 17.66,4.531 3.2,0 5.15,-0.391 5.78,-1.102 0,-0.23 -0.08,-2.109 -0.16,-5.617 -0.74,-10.742 -1.09,-18.992 -1.09,-24.691 0,-5.743 0.04,-9.961 0.15,-12.661 0.2,-2.73 0.32,-4.492 0.32,-5.308 0.07,-0.742 0.31,-2.113 0.62,-4.063 0.39,-1.988 0.98,-3.6676 1.72,-4.9996 2.07,-4.0586 5.31,-6.0899 9.69,-6.0899 4.45,0 8.36,2.1797 11.72,6.5625 3.43,4.449 5.07,7.578 5,9.367 v 7.192 c 0,25.629 0.39,39.41 1.25,41.41 0.7,1.25 2.89,2.539 6.56,3.898 3.75,1.449 7.42,2.192 11.09,2.192 3.63,0 5.7,-0.309 6.25,-0.942 l -0.31,-9.84 c -0.86,-20 -1.25,-35.468 -1.25,-46.41 0,-10.9295 0.23,-17.8904 0.78,-20.7771 0.94,-6.9922 2.81,-12.6211 5.63,-16.8711 0,-1.332 -2.9,-3.5195 -8.6,-6.5703 -5.74,-3.1211 -10.62,-4.6797 -14.69,-4.6797 -1.17,0 -2.42,2.1094 -3.75,6.25 -1.36,4.1797 -2.18,8.1992 -2.5,12.1797 z" /><path
         id="path252"
         style="fill:#002a46;fill-opacity:1;fill-rule:nonzero;stroke:none"
         d="m 1963.71,113.199 0.16,-7.648 V 89.6094 c 0,-15 -0.28,-22.8086 -0.78,-23.4375 -1.88,-1.7617 -5.08,-3.1211 -9.54,-4.0625 -4.49,-1.0196 -8.2,-1.5586 -11.09,-1.5586 -2.81,0 -4.22,0.2305 -4.22,0.6211 1.02,6.3281 1.56,16.7187 1.56,31.0976 l -0.62,47.1795 c 0,8.75 0.31,13.442 0.94,14.071 1.56,1.562 4.22,2.89 7.97,4.062 3.82,1.25 7.38,1.867 10.62,1.867 3.32,0 5,-0.39 5,-1.09 -0.43,-3.359 -0.62,-6.679 -0.62,-10 0,-3.359 0.19,-5 0.62,-5 l 0.63,0.313 c 0.7,1.019 1.75,2.269 3.12,3.75 1.33,1.449 4.3,3.359 8.91,5.777 4.57,2.5 8.9,3.75 12.97,3.75 4.14,0 7.65,-0.738 10.46,-2.179 2.9,-1.489 5.24,-3.29 7.04,-5.469 1.87,-2.11 3.47,-5.121 4.84,-9.071 1.33,-3.859 2.34,-7.46 2.97,-10.781 0.7,-3.359 1.29,-7.808 1.72,-13.429 0.39,-7.739 0.62,-17.5005 0.62,-29.3794 l -0.62,-24.6914 c 0,-0.9297 -2.35,-1.789 -7.03,-2.6484 -4.61,-0.9414 -8.25,-1.4102 -10.94,-1.4102 l -7.03,0.9414 c 1.44,12.5782 2.18,24.7578 2.18,36.5586 0,11.8794 -0.78,20.7814 -2.34,26.7184 -1.56,6.012 -4.69,9.063 -9.37,9.063 -4.61,0 -8.36,-1.332 -11.25,-3.902 -2.82,-2.5 -4.65,-5 -5.47,-7.5 l -1.41,-3.598 z" /><path
         id="path254"
         style="fill:#002a46;fill-opacity:1;fill-rule:nonzero;stroke:none"
         d="m 2062.58,203.52 c -0.31,-3.25 -0.7,-12.04 -1.1,-26.411 10.51,0 15.79,-0.23 15.79,-0.629 0,-4.8 -0.75,-9.058 -2.19,-12.808 -1.37,-3.672 -2.66,-5.473 -3.91,-5.473 h -9.84 c -0.31,-20.738 -0.47,-37.609 -0.47,-50.617 0,-12.9336 0.19,-21.5312 0.62,-25.7812 0.82,-7.3125 3.68,-13.25 8.6,-17.8203 0,-1.5586 -2.74,-3.7813 -8.13,-6.711 -5.31,-3.0078 -10.39,-4.539 -15.15,-4.539 -0.43,0 -1.25,0.75 -2.5,2.1914 -1.18,1.3672 -2.42,3.6679 -3.75,6.8789 -1.25,3.2383 -2.11,6.3203 -2.5,9.3711 -0.32,3.1289 -0.47,14.0976 -0.47,32.9691 0,18.949 0.19,36.8 0.62,53.589 l -11.72,-0.148 c -0.74,0.699 -1.09,3.75 -1.09,9.059 0,5.39 0.63,8.668 1.88,9.839 3.12,0.079 6.79,0.239 11.09,0.469 0,8.133 -0.24,13.321 -0.63,15.633 -0.43,2.379 -0.62,3.789 -0.62,4.219 0,1.437 2.38,3.039 7.19,4.84 4.88,1.879 9.14,2.808 12.81,2.808 3.63,0 5.47,-0.308 5.47,-0.929 z" /><path
         id="path256"
         style="fill:#002a46;fill-opacity:1;fill-rule:nonzero;stroke:none"
         d="m 2143.32,90.2305 c 0,-7.6094 -3.55,-14.3711 -10.62,-20.3086 -7.11,-5.9414 -14.77,-10.1914 -22.97,-12.8125 -8.13,-2.5781 -15.28,-3.9102 -21.41,-3.9102 -0.74,0 -1.72,0.8594 -2.97,2.5 -3.55,4.6094 -5.31,10 -5.31,16.25 v 1.4102 c 10.94,0 19.26,1.8711 25,5.6211 5.7,3.8281 8.59,7.8203 8.59,11.8789 0,2.582 -1.79,5.3515 -5.31,8.2812 -3.44,3.0074 -7.27,5.6294 -11.41,7.8084 -4.18,2.27 -8.04,5.242 -11.56,8.91 -3.55,3.75 -5.31,7.661 -5.31,11.723 0,8.508 5.31,16.328 15.94,23.438 10.7,7.179 22.07,10.781 34.06,10.781 1.44,0 3.28,-1.961 5.47,-5.781 2.26,-3.872 3.47,-7.821 3.59,-11.879 -2.81,0 -7.03,-0.86 -12.65,-2.5 -11.06,-3.551 -16.57,-7.891 -16.57,-12.969 0,-3.672 5.47,-8.672 16.41,-15 4.14,-2.422 8.01,-5.703 11.56,-9.84 3.52,-4.1836 5.35,-8.7109 5.47,-13.6015 z" /></g></g></svg>